<?xml version="1.0" encoding="utf-8"?>
<!-- Generator: Adobe Illustrator 25.0.0, SVG Export Plug-In . SVG Version: 6.00 Build 0)  -->
<svg version="1.1" id="Layer_1" xmlns="http://www.w3.org/2000/svg" xmlns:xlink="http://www.w3.org/1999/xlink" x="0px" y="0px"
	 viewBox="0 0 490.7 490.7" style="enable-background:new 0 0 490.7 490.7;" xml:space="preserve">
<style type="text/css">
	.st0{fill:#FFFFFF;}
	.st1{fill:#ED1C24;}
	.st2{fill:#A97C50;}
	.st3{fill:#27AAE1;}
	.st4{fill:#E2E2E2;}
	.st5{fill:#B4B4B4;}
	.st6{fill:#C3C3C3;}
	.st7{fill:#C2C2C2;}
	.st8{fill:#B5B5B5;}
	.st9{fill:#CACACA;}
	.st10{fill:#C8C8C8;}
	.st11{fill:#7C7C7C;}
	.st12{fill:#7F7F7F;}
	.st13{fill:#7D7D7D;}
	.st14{fill:#424242;}
	.st15{fill:#7E7E7E;}
	.st16{fill:#414141;}
	.st17{fill:#808080;}
	.st18{fill:#434343;}
	.st19{fill:#A3DDF4;}
	.st20{fill:#D4D4D4;}
	.st21{fill:#B8B8B8;}
	.st22{fill:#787878;}
	.st23{fill:#A2A2A2;}
	.st24{fill:#C1C1C1;}
	.st25{fill:#5A5A5A;}
	.st26{fill:#494949;}
	.st27{fill:#BEBEBE;}
	.st28{fill:#767676;}
	.st29{fill:#4B4B4B;}
	.st30{fill:#4C4C4C;}
	.st31{fill:#BE1E2D;}
	.st32{fill:#A7A7A7;}
	.st33{fill:#C0C0C0;}
	.st34{fill:#4E4E4E;}
	.st35{fill:#A4A4A4;}
	.st36{fill:#ACACAC;}
	.st37{fill:#505050;}
	.st38{fill:#555555;}
	.st39{fill:#585858;}
	.st40{fill:#6B6B6B;}
	.st41{fill:#C7C7C7;}
</style>
<g>
	<path class="st2" d="M426.8,368.4c-2.8,12.2-10.3,18.4-22.8,18.4c-86.9,0-173.8,0-260.7,0c-12.8,0-20.9-6.9-22.8-19.2
		c-0.5-3.9-0.2-7.8-0.2-11.7c0.8-2,2.6-2.2,4.3-2.3c2.8-0.2,5.7,0.2,8.4-0.2c5.5-0.7,8.9,2,11.1,6.6c1.3,2.6,3.2,3.8,6,3.9
		c9.8,0.1,19.6,0.1,29.4,0c2.8,0,4.8-1.1,6.1-3.7c2.3-4.7,5.8-7.1,11.4-6.8c7.9,0.4,15.8,0.1,23.7,0.1c3.7,0,7.1-1,10.3-2.9
		c12.5-7.6,24.8-15.5,37.2-23.2c3.6-2.2,6.5-2.2,10,0c11.9,7.6,24.1,14.6,36,22.2c4.5,2.9,9.1,4.1,14.4,4c7.6-0.2,15.3,0.2,22.9-0.2
		c4.9-0.3,8,1.7,9.7,5.9c1.4,3.6,4,4.7,7.6,4.6c9,0,18,0,27,0c3.5,0,6-1.1,7.7-4.5c2-4,5.2-6.6,10.3-6c2.9,0.4,5.9,0,8.8,0.1
		c1.8,0.1,3.5,0.3,4.4,2.2C426.9,360.1,427.3,364.3,426.8,368.4z"/>
	<path class="st2" d="M407.4,239.4c10.3,1.1,16.4,6.8,19.4,17.9c0.7,8.1,0.1,16.1,0.3,24.2c-0.4,2.2-2.2,2.5-4,2.6
		c-2.5,0.3-5.1-0.2-7.6,0.2c-6.3,1-9.8-2.4-12.3-7.4c-1.3-2.7-3.2-3.8-6-3.8c-9.8-0.1-19.6-0.1-29.4,0c-3,0-5.1,1.2-6.2,4.1
		c-2.1,5.4-5.8,7.5-11.8,7.3c-6.2-0.2-11.5-1.5-16.6-5c-10.4-7.2-21.1-13.9-31.5-20.9c-4.3-2.9-4.9-4.2-3.1-9.1
		c1.4-3.9,1.7-8.7,6.7-10.2c32.7,0,65.5,0,98.2,0C404.7,239.2,406.1,239,407.4,239.4z"/>
	<path class="st2" d="M120.4,258.1c2.2-11.2,8.9-17.7,19.4-18.7c1.3-0.5,2.6-0.3,4-0.3c29.7,0,59.5,0,89.2,0c4,1.5,7.1,4.1,8.9,8
		c1,2.2,2.2,4.3,3.5,6.3c1.5,2.4,1.1,4.2-1.2,5.8c-9.8,6.8-20.1,12.9-29.7,20c-7.1,5.2-14.6,4.2-22.2,3.9c-3.7-0.1-5-3.6-6.4-6
		c-1.7-3.1-3.9-4.2-7.1-4.2c-9.3,0-18.5,0-27.8,0c-3.4,0-6,0.9-7.2,4.5c-0.6,1.6-1.8,3-2.7,4.5c-0.8,1.4-2,2.1-3.7,1.9
		c-4.1-0.6-8.3-0.2-12.4-0.4c-2-0.1-4.2,0-4.9-2.6C120.3,273.2,119.9,265.7,120.4,258.1z"/>
	<path class="st3" d="M258.2,152.7c-1.5-7-3.7-13.7-7-20c-2.8-5.5-6.3-10.2-11.8-13.4c-3-1.8-5.2-4.3-4.4-8.3
		c0.7-3.4,3.1-4.8,6.4-5.1c0.6,0.6,0.6,1.4,0.5,2.2c0,0.3,0,0.6,0,0.9c0.1,0.3,0.2,0.6,0.3,0.9c1.6,1.6,3.4,2.1,5.6,1.5
		c0.5-0.1,1.1,0,1.5,0.2c4.5,7.1,7.5,14.8,10.3,22.6c0.6,1.6,0.2,4.7,2.8,3.9c2.3-0.7,1.5-3.5,1-5.3c-3.4-11.3-6.3-22.8-8.1-34.4
		c-1.4-9-2.6-18.2,0.1-27.1c2.7-8.9,10.6-12.7,19-9.7c7.2,2.5,10.1,9.8,6.9,18.4c-3.5,9.4-8.5,18.3-9.8,28.4
		c-0.8,6.5-0.9,12.8,1.1,19.1c0.7,2.2,0.6,5.6,3.8,5.2c2.8-0.3,2.3-3.5,2.6-5.7c2.6-16.7,6.5-33,16.5-47
		c5.2-7.2,11.6-12.6,21.4-12.1c5.1,0.3,8.7,2.6,10.8,7.1c2.1,4.4,0.3,8.2-2.5,11.5c-3.7,4.4-8.2,7.6-13.1,10.5
		c-9,5.4-17.3,11.5-19.8,22.6c-0.8,3.5-0.5,6.4,4.4,5.6c1.4-0.3,1.7,0.7,1.6,1.6c-0.7,4.6-0.1,9.2-0.8,13.7
		c-5.7,4.3-9.6,10-12.8,16.3c-0.7-0.1-1.4-0.5-1.5-1.2c-0.6-3-1.8-5.2-5.1-5.9c-4.3-0.8-8.5-1.6-12.3,1.5
		C263.7,153.1,261.1,153.9,258.2,152.7z"/>
	<path class="st3" d="M243,205.8c-3.2-5.1-6.4-10.2-9.6-15.3c-0.3-0.3-0.5-0.6-0.8-0.9l0,0c-0.3-0.3-0.5-0.6-0.8-0.8l0,0
		c-0.2-0.3-0.5-0.6-0.8-0.8l0,0c-0.4-0.5-1.2-0.3-1.5-0.9l-0.1,0c-0.3-0.2-0.5-0.5-0.8-0.7l0,0c-0.1-3.3,2.3-2.4,4.2-2.5
		c1.1,0,1.9,0.9,2.8,1.4c3.1,1.7,4.4,0.9,4.4-2.6c0-1.7-0.6-3.6,2.2-3.5c0.3,0.5,0.6,1,0.8,1.5c0.2,0.3,0.5,0.5,0.7,0.8
		c1.4,1.9,2.6,4.2,4.4,5.7c3.3,2.7,7.4,0.2,9.5-5.6c2.5-2.9,5.3-3.6,7.8-1.3c3,2.8,6.5,3.4,10.3,3.3c3.2,0,6.4-0.3,9.6,0.2
		c3.9,0.6,5,2.2,4.5,5.9c-5.3,6.1-8.2,13.3-10.6,20.9c-3.9,0.1-2.9-3.3-3-5.1c-0.1-1.8-0.2-3.2-1.7-4.2c-0.4-0.6-0.6-1.2-0.4-1.8
		c-0.1,0.5-0.4,1-0.6,1.5c-0.9,1.9,0.1,4.8-3.2,5.2c-1.2-0.3-1.5-1.4-2.1-2.3c-1.3-1.8-3.1-1.9-5-1.3c-1.8,0.5-2.5,1.8-2.4,3.7
		c0.1,1.3,0.2,2.7-1,3.7c-1.9,0.9-3,0.1-3.6-1.6c-0.5-1.4-1.2-2.8-2-4.1c-0.7-1.1-1.2-0.3-1.6,0.3c-1.1,1-2.6,1.4-3.7,0.9
		C246.7,204.7,244.9,205.4,243,205.8z"/>
	<path class="st3" d="M289.8,189.7c-1.1-3.1-3.5-4.1-6.6-4.1c-4,0-8-0.1-11.9,0c-2.6,0-4.9-0.5-6.5-2.9c-1.9-2.8-4.6-2-7.2-1.1
		c0.3-3.5,0.5-6.9,0.8-10.4c6.5-1.1,13-1.4,19.5-1.2c2,0.1,3.3,0.8,3.8,2.8c0.4,1.8-1,4.3,0.8,5.1c1.7,0.7,3-1.6,4.4-2.8
		c3.1-2.7,6.1-5.5,10-7.2c0.5-0.4,1.3-0.3,1.7-0.8l0,0c0.5-0.5,1.2-0.3,1.6-0.8l0,0c0.4-0.5,1.1-0.3,1.6-0.7c0.3,0,0.5,0,0.8-0.1
		c1.7-0.5,3.4-1.2,4.6,0.9c0.2,1.8-1.1,2.4-2.4,3c-0.3,0.2-0.7,0.3-1,0.5c0,0-0.2,0.1-0.1,0.1c0,0-0.1,0.1,0,0c0.1,0,0.1,0,0.2,0
		s0.2,0,0.3,0c3.2-0.1,6.4-0.1,9.3,1.5c2.2,1.2,2.5-0.2,2.2-2c0.4-1.6,0.5-3.5,3-3.1c2.9,1.8,4.4,4.3,3.6,7.8
		c-0.9,3.8-3.4,6.1-7.2,6.7C306.2,182.3,297,183,289.8,189.7z"/>
	<path class="st3" d="M297.7,140.5c-3.8-4.9-1.1-10.2-0.8-15.3c8.6-7,18-12.1,29.5-12c3.3,0,6.4,0.7,9.2,2.5
		c3.4,2.2,5.2,5.4,4.7,9.5c-0.4,3.9-3,6-6.6,7.3c-5.7,2-11.6,1.8-17.5,2.1C309.5,135,303.4,137,297.7,140.5z"/>
	<path class="st3" d="M407.4,239.4c-28.5,0.1-57,0.1-85.6,0.2c-5.9,0-11.8,0.1-17.7,0.1c-1,0.7-1.9,1.6-3.1,1.6
		c-4.8-0.1-6.9,2.9-8.1,6.9c-0.7,1.8-2.3,2.8-3.4,4.2c-1.8,2.3-3.4,0.3-4.9-0.9c-0.2-0.4-0.4-0.9-0.2-1.3c0,0-0.1,0-0.2,0.1
		c-0.4,1.3-1,2.3-2.7,1.7c-1.5-1-3-1.8-4.8-1.7c-6.1,0.2-12.2,0-18.3-0.8c-3.1-0.4-5.8-2-9-1.8c-2.5-1.9-4.4-4.2-5.1-7.4
		c-0.1-0.8,0.3-1.6,0.3-2.4c-0.4-0.6-0.7-1.1-1.1-1.7c2.5-3.2,5-1.2,7.5-0.1c1.1,0.1,1.4,2.9,3.1,0.9c1.1-2,2.7-1.9,4.5-1.1
		c2.6,1.2,4.8,0.4,7-1.3c3.4-2.8,8.6-2.6,12.3,0.2c0.8,0.6,1.9,0.8,2.8,1.4c6.2,2.1,5.7-3.3,7.2-6.5c0.5-0.6,1-1.3,1.9-0.9
		c1.7,0.7,4.9,6.9,4.7,9.1c4.2,1.6,8.5,0.8,12.7,0.8c31.4,0.1,62.7,0.1,94.1,0.1C403.4,238.9,405.4,239.3,407.4,239.4z"/>
	<path class="st4" d="M120.4,258.1c0.1,7.8,0.2,15.6,0.3,23.4c2.7,2.7,1.6,6.1,1.7,9.2c0.5,5.7,1.9,7.1,7.4,7.2
		c5.5,0.1,11,0,16.5,0.1c2.5,0,4.8,0.3,6.7,2.2c0.9,1.3,0.7,2.7,0.6,4.1c-0.1,1.9-2,2.4-2.9,3.8c-0.5,1.5-0.3,3.2-1.7,4.3
		c-2.2,1.4-4.7,0.9-7,1c-4.3,0.1-8.6-0.1-12.8,0.1c-4.7,0.2-6.2,1.7-6.5,6.3c-0.1,1.9-0.2,3.7-0.2,5.6c0.2,5.2,0.3,10.4,0,15.6
		c0,1.8,0,3.5,0,5.3c-0.1,3.2,1.1,6.7-1.7,9.4c-0.1,4-0.2,8.1-0.2,12.1c-0.2-1.7-0.6-3.4-0.6-5.1c0-33.1,0-66.2,0-99.3
		C119.8,261.5,120.2,259.8,120.4,258.1z"/>
	<path class="st4" d="M426.6,282.3c0.1-8.3,0.1-16.7,0.2-25c0.2,1.7,0.7,3.4,0.7,5.1c0,33.6,0,67.2,0,100.9c0,1.7-0.4,3.4-0.7,5.1
		c-0.1-4.3-0.2-8.6-0.3-12.9c-2.5-2.4-1.7-5.4-1.6-8.3c0-0.5,0-1,0-1.5c-0.1-1.5,0-2.9-0.1-4.4c-0.3-5.4-0.3-10.7,0-16.1
		c0-2-0.1-4-0.2-6c-0.3-4.2-1.8-5.7-6-6c-5.4-0.3-10.7,0-16.1-0.2c-3.2-0.1-5.4-1.5-5.7-4.9c-0.4-1.1-1.6-1.7-1.8-3
		c-0.2-6.7,0.3-7.2,7.1-7.3c5.1-0.1,10.1,0.1,15.2-0.1c5.5-0.1,6.9-1.5,7.5-7.1C424.9,287.9,423.9,284.7,426.6,282.3z"/>
	<path class="st3" d="M280.9,236.4c-1.6,0.4-3-0.2-4.6-0.7c-3.4-1.1-7-1.8-9.9,1.5c-4,4.6-8.1,0.3-12.2,0c-0.5-2.1-1.1-4.2-1.6-6.4
		c-0.4-0.5-0.3-1.2-0.7-1.6c0-0.3-0.1-0.6-0.1-0.9c-0.2-3.7,2.2-4.4,5.2-4.5c0.2-0.1,0.5-0.1,0.8-0.2c0,0,0.3-0.2,0.3-0.2
		c0,0,0.3-0.2,0.3-0.2c0.2-0.2,0.3-0.3,0.5-0.5c0.1-0.3,0.3-0.6,0.4-0.8c2.5-5.3,6.3-7.1,10.2-4.8c0.5,0.8,0.5,1.7,0.5,2.6
		c0,0.8,0,1.7,0.1,2.3c0,0.8,0.6,0.2,0.1,0.3c0.3-2.5-1.5-5.8,2.7-6.7c2.1-0.6,4.1-0.5,5.7,1.4C278.9,223.5,277.3,230.3,280.9,236.4
		z"/>
	<path class="st3" d="M258.2,152.7c6.3-2.7,11.8-7.5,19.7-5.4c5.5,1.4,9,3.2,7.1,9.5c-0.8,2.9-1.6,5.8-2.5,8.7
		c-0.6,0.5-1.2,1.1-2.1,1.1c-0.9,0.1-1.7-0.1-2.2-0.8c-2.9-4.2-7.2-4.1-11.5-3.9c-3.3,0.1-5.3,1.4-5.7,4.9c-0.2,1.6,0,3.7-2.7,3.5
		C258.3,164.4,258.3,158.5,258.2,152.7z"/>
	<path class="st3" d="M242.2,179.2c0,1.5,0.1,3.1,0.1,4.6c0,1.5,2.1,3.6-0.3,4.5c-2.2,0.8-5,1.6-7-0.6c-1.9-2-3.9-2.7-6.4-1.3
		c-4.3-3.3-8.6-6.5-13-9.8c-0.2-0.2-0.5-0.4-0.6-0.7l-0.1-0.1c-0.3-0.2-0.5-0.4-0.7-0.6c-0.3-0.5-0.6-1.1-0.9-1.6
		c-0.2-0.3-0.5-0.5-0.7-0.8c0-0.3-0.1-0.6-0.1-0.8c1.2-2.1,3-0.9,4.6-0.8c3.4,0,7,1.2,9.7-1.9c2.3-1,4.1,0.1,5.8,1.4
		c1.1,0.8,2.2,1.5,3.4,2.1c1.2,0.6,2.4,1.2,3.7,1.7c0.1,0.2,0.1,0.5,0.1,0.7c0.2,0.3,0.5,0.5,0.7,0.8
		C241.1,177,241.6,178.1,242.2,179.2z"/>
	<path class="st3" d="M210.6,119.5c10.7,0.2,20,9.3,20.4,18.6c0.1,1.2,0.6,2.7-1.6,1.6c-6.1-3-12.8-3.8-19.4-5
		c-4.8-0.9-8.7-2.9-7.9-8.6C202.8,120.6,207.3,119.8,210.6,119.5z"/>
	<path class="st3" d="M258.4,170.3c0.1-0.1,0.1-0.2,0.2-0.4c1.6-3-1.3-7.6,2.2-9.2c4.5-2.1,9.7-0.8,14.6-0.7
		c3.5,0.1,2.9,5.1,6.3,5.5c0.3,1.6-0.2,3.3,0.1,4.9c0,0.8,0,1.6-0.1,2.4c-5.1-1.7-10.2-0.8-15.3-0.4c-2.8,0.3-5.6,0.7-8-1.2
		C258.4,170.9,258.4,170.6,258.4,170.3z"/>
	<path class="st3" d="M296.1,50.6c0.5-5.6,2.5-9.4,7.3-11.4c5.3-2.3,10.6-2.7,15.1,1.3c3.7,3.3,1.2,6.1-2.1,7.9
		c-5.6,2.9-11.7,4.6-16.4,9.1c-1.4,1.3-1.9,0-2.3-1C297,54.3,296.5,52.1,296.1,50.6z"/>
	<path class="st3" d="M294.6,238.1c-2.9-2.2-4.7-5.2-6.6-8.2c0.9-4.6,2.4-8.9,4.9-12.9c3.6-1.5,7.4-1.9,11.2-2.3
		c4.1-0.4,5.2,1.1,4.1,5.4C303,225.6,297.9,231.2,294.6,238.1z"/>
	<path class="st3" d="M251.2,236.3c-2.5,0-5,0.1-7.5,0.1c-4-3.1-8-6.3-12-9.4c-2.2-1.8-3.7-4-2.8-7c0.7-2.4,2.3-4.1,4.8-4.3
		c2.9-0.2,5.1,1.3,6.6,3.8C243.9,225.1,247.5,230.7,251.2,236.3z"/>
	<path class="st3" d="M226.9,170.3c-4.4,4.7-9.5,2.8-14.5,1.6c-2-5.8,0.2-10,5.3-12.6c5.5-2.9,12.6-1,15.6,4
		c2.2,3.6,4.2,7.4,6.3,11.2c-1.3,0.6-2.6,1.6-3.9,0c-2.6-4-6.2-7.2-9.9-10.1c-0.6-0.5-1.4-0.8-2.2-0.9c-1.8-0.2-3.9-0.3-4.2,1.9
		c-0.3,2.3,1.9,2,3.4,2.3C224.5,167.9,227.1,167,226.9,170.3z"/>
	<path class="st3" d="M308.2,220.2c-1.8-6.5-6.3-2.6-9.7-2.4c-2,0.1-4,1.8-5.6-0.8c1.1-2.9,2.6-5.6,4.9-7.6c3.8-3.2,8-4.4,11.8-0.5
		C313.4,212.8,311.3,216.8,308.2,220.2z"/>
	<path class="st3" d="M243,205.8c0.4-3.9,1.3-6.6,5.6-2.7c0.8,0.7,2.2,0.7,3.3,1.1c3.3,0.9,5.7,5.4,5.1,9.7c-0.4,1-1.4,1.4-1.8,2.5
		c-1.5,4.5-2.2,4.7-6.6,2.4C246.7,214.4,244.8,210.1,243,205.8z"/>
	<path class="st3" d="M345,87.4c2.8,0.5,6.3,0.6,6.7,4c0.4,3.7-3,3.7-5.6,4.2c-3.7,0.6-7.4,1.1-11.1,1.6c-1,0.1-2.1,1.3-2.8,0
		c-0.3-0.6,0.3-1.8,0.7-2.6C335.5,89.8,339.9,87.9,345,87.4z"/>
	<path class="st3" d="M314.8,145.4c2.1,0.5,4.9,0.4,5.1,3.4c0.2,2.8-2.5,3.1-4.6,3.6c-2.2,0.5-4.5,0.8-6.7,0.9c-1.3,0.1-3,2-3.8,0.1
		c-0.4-0.9,0.8-2.7,1.6-3.9C308.4,146.7,311.4,145.7,314.8,145.4z"/>
	<path class="st3" d="M248.6,218.7c4.1,0.9,4.6-3.7,7.3-4.9c3.1,0,2.1,2.7,2.8,4.3c0.1,0.7,0.3,1.4,0.6,2.1c0.1,0.3,0.2,0.7,0.2,1
		c0.1,0.7,0.4,1.3,0.3,2c-0.2,0.6-0.2,1.3-0.7,1.9c-2.4,1-5.6,0.5-7.3,3.2C250.8,225.1,249.7,221.9,248.6,218.7z"/>
	<path class="st5" d="M244.8,238.1c0.2,0.4,0.4,0.9,0.6,1.3c-2.8,2.8-6.7,2.9-11.2,0.3c-29.6,0-59.2,0-88.7-0.1
		c-1.9,0-3.7-0.1-5.6-0.2c2.1-0.2,4.2-0.6,6.3-0.6c30.8-0.1,61.5,0,92.3-0.1C240.6,238.8,242.7,238.3,244.8,238.1z"/>
	<path class="st3" d="M278.5,217c-2.2,0-4.3,0-6.5,0c-2.7-1.8-1-4.4-1.1-6.6c0.3-1.1,0.4-2.3,0.7-3.4c0.1-0.3,0.3-0.7,0.5-1
		c0.3-0.5,0.3-1,0.5-1.5c0.1-0.3,0.2-0.7,0.3-1c0.3-1,0.6-2.1,1.8-2.4c0.2,0,0.4-0.1,0.5-0.1c1.9-0.8,2.6-0.4,2.7,1.8
		c0.1,2.6,0.9,5.2,1.4,7.8C279,212.7,278.7,214.9,278.5,217z"/>
	<path class="st3" d="M306.6,167c-0.9-1.6-2.5-1.5-4-1.5c5.5-1.6,10.9-2.4,16.1,0.8c-1.2,0.8-1,2-0.8,3.2
		C313.9,169.9,309.9,170.1,306.6,167z"/>
	<path class="st3" d="M249.4,111.5c-0.3,0.3-0.5,0.6-0.8,0.8c-3.5-0.6-6.4-2.4-8.8-4.9c0.5-0.5,1.1-1.1,1.6-1.6
		C245.7,105.4,247.8,108.2,249.4,111.5z"/>
	<path class="st6" d="M281.7,170.4c-1.1-1.6-0.8-3.3-0.1-4.9c0.3,0,0.6,0,0.8,0C282.2,167.1,282,168.8,281.7,170.4z"/>
	<path class="st7" d="M229.4,187.2c0.5,0.3,1,0.6,1.5,0.9C230.4,187.8,229.9,187.5,229.4,187.2z"/>
	<path class="st8" d="M252,229.2c0.2,0.5,0.5,1.1,0.7,1.6C252.4,230.3,252.2,229.7,252,229.2z"/>
	<path class="st9" d="M298.6,167.1c-0.6,0.3-1.1,0.5-1.7,0.8C297.4,167.6,298,167.3,298.6,167.1z"/>
	<path class="st9" d="M300.2,166.3c-0.5,0.3-1.1,0.5-1.6,0.8C299.1,166.8,299.6,166.5,300.2,166.3z"/>
	<path class="st9" d="M301.8,165.5c-0.5,0.2-1.1,0.5-1.6,0.7C300.7,166,301.2,165.8,301.8,165.5z"/>
	<path class="st7" d="M232.5,189.7c0.3,0.3,0.6,0.6,0.8,0.9C233,190.2,232.8,189.9,232.5,189.7z"/>
	<path class="st10" d="M214.9,176c0.2,0.2,0.4,0.5,0.6,0.7C215.3,176.4,215.1,176.2,214.9,176z"/>
	<path class="st7" d="M231.7,188.9c0.3,0.3,0.6,0.6,0.8,0.8C232.2,189.4,232,189.1,231.7,188.9z"/>
	<path class="st7" d="M243.7,181.5c-0.2-0.3-0.5-0.5-0.7-0.8C243.2,181,243.5,181.3,243.7,181.5z"/>
	<path class="st10" d="M240.5,175.9c-0.2-0.3-0.5-0.5-0.7-0.8C240,175.4,240.3,175.6,240.5,175.9z"/>
	<path class="st10" d="M214.1,175.2c0.2,0.2,0.4,0.4,0.7,0.6C214.6,175.6,214.3,175.4,214.1,175.2z"/>
	<path class="st10" d="M212.5,172.8c0.2,0.3,0.5,0.5,0.7,0.8C212.9,173.3,212.7,173,212.5,172.8z"/>
	<path class="st7" d="M228.5,186.4c0.3,0.2,0.5,0.5,0.8,0.7C229,186.9,228.8,186.7,228.5,186.4z"/>
	<path class="st7" d="M230.9,188c0.3,0.3,0.6,0.6,0.8,0.8C231.4,188.6,231.1,188.3,230.9,188z"/>
	<path class="st1" d="M426.5,346.7c0,2.9,0,5.9,0,8.8c-4.2,0-8.3,0.2-12.5-0.1c-5.6-0.4-7.8,3.2-9.1,7.5c-0.7,2.3-1.8,3.1-3.9,3.1
		c-12.5,0-25,0-37.5,0c-2.4,0-3.4-1.1-3.9-3.5c-1-4.2-2.9-7.6-8.4-7.1c-4,0.4-8.1-0.4-12.1,0.2c-14.2,2-26.1-2.9-37.3-11.1
		c-8.1-5.9-17.1-10.6-25.6-15.9c-2-1.3-3.8-1.3-6,0c-13.3,8.4-26.7,16.6-40,24.9c-2.3,1.4-4.6,2-7.2,2c-8.2-0.1-16.4,0.3-24.6-0.1
		c-6.4-0.3-10.1,2.1-11.3,8.3c-0.4,2.1-2,2.3-3.7,2.3c-12.5,0-25,0-37.5,0c-2.4,0-3.3-1.1-4-3.5c-1.2-4-3.3-7.4-8.6-7.1
		c-4.3,0.3-8.6,0.1-12.9,0.1c0-3.2,0-6.4-0.1-9.6c0.9-1.3,2.3-1.8,3.8-1.9c8.5-0.5,17.1,0.6,25.6-1.3c0.6-0.1,1.3,0.3,1.9,0.5
		c1.8,0.8,1.8,2.5,1.9,4.1c0.2,2,0.2,4,1.5,5.7c3.7,2.8,7.9,2,12,1.7c1.1,0,2.1-0.3,3.2-0.3c3.4-0.2,5-2.1,5.1-5.5
		c0.1-1.8-0.2-3.8,1.3-5.3c0.4-0.2,0.8-0.4,1.2-0.5c3-1.1,5.7,0.8,8.7,0.8c11.1,0,22.2,0,33.3,0c3,0,5.7-1,8.3-2.6
		c7.8-4.7,15.4-9.7,23.2-14.4c5.5-3.5,11.2-6.9,16.6-10.6c3.1-2.1,5.9-2.2,9.2-0.2c13.7,8.2,27.1,16.8,40.8,25
		c3.2,1.9,6.5,2.8,10.3,2.8c10.7-0.1,21.5-0.1,32.2,0c3.1,0,6.2-1.9,9.4-0.2c1.4,1.6,1,3.5,1.2,5.3c0.1,1.5,0.4,2.9,1.4,4.1
		c3.7,2.6,7.9,1.2,11.9,1.5c0.4,0,0.8,0,1.2-0.1c5.4,0.8,8.2-3.1,11-6.5c1.2-1.5,2.2-2.6,4.1-2.6c7.5,0,15,0,22.5,0
		C424.8,345.5,425.8,345.8,426.5,346.7z"/>
	<path class="st11" d="M345.4,379.8c-2.1-0.6-5.9,1-5.9-2.2c0-3.8,4-2.5,6.4-2.5c2.2-0.1,5.9-0.9,5.7,2.3
		C351.5,380.8,347.6,379.2,345.4,379.8z"/>
	<path class="st11" d="M264.6,367.7c-2.2-0.6-6.3,1-6.1-2.5c0.2-3,4.2-2.4,6.8-2.3c2,0,5.5-1.1,5.3,2.3
		C270.3,368.7,266.8,367.2,264.6,367.7z"/>
	<path class="st12" d="M206.3,365.9c2.3,0.8,6.2-1.1,6.1,2.3c0,3.2-3.9,1.9-6,1.9c-2.2,0-6,1.2-5.9-2
		C200.5,364.6,204.4,366.9,206.3,365.9z"/>
	<path class="st13" d="M296.4,359.8c-2.3-0.7-6.2,1-6-2.4c0.1-3.2,3.9-1.7,6-1.8c2-0.1,5.6-1.2,5.6,1.8
		C302,361.1,298.2,358.7,296.4,359.8z"/>
	<path class="st14" d="M269.1,349.3c-2-0.7-5.8,1.1-5.8-1.8c0-3.4,3.9-2.3,6.2-2.3c2.1,0,5.7-1,5.6,2
		C275,350.5,271.2,348.5,269.1,349.3z"/>
	<path class="st14" d="M216.4,377.5c-2.2-0.8-5.9,1.1-5.8-2.1c0.1-3.2,3.8-2,6-2c2.1,0,5.7-1,5.6,2
		C222.1,378.9,218.2,376.4,216.4,377.5z"/>
	<path class="st15" d="M253.6,372.3c2,0.7,5.7-1.1,5.6,2c0,3.3-3.8,2-5.9,2.1c-2.1,0-5.7,1-5.6-2C247.8,371,251.6,373.2,253.6,372.3
		z"/>
	<path class="st16" d="M319.1,370.2c-2.1-0.7-6,1.1-6.1-2c-0.1-3.3,3.7-2,5.9-2c2,0,5.6-1.3,5.7,1.8
		C324.7,371.3,321,369.5,319.1,370.2z"/>
	<path class="st17" d="M148.8,378.3c-2-0.7-5.8,1.2-5.7-2.3c0.1-2.9,3.7-1.8,5.7-1.7c2.1,0,5.8-1.2,5.7,2.2
		C154.4,379.4,150.8,377.6,148.8,378.3z"/>
	<path class="st14" d="M390.6,377.5c-2.3-0.7-6,1-6-2.3c0-3,3.6-1.7,5.6-1.7c2.1,0,5.8-1.3,5.8,2
		C396.1,378.4,392.4,376.7,390.6,377.5z"/>
	<path class="st1" d="M426.6,282.3c0,2.9,0,5.9,0.1,8.8c-1,1.2-2.3,1.8-3.8,1.8c-7.8,0.1-15.6,0.7-23.4-0.4
		c-0.8-0.3-2.2-0.6-2.2-1.5c0-3.4-3.1-4.6-4.4-7c-0.3-0.2-0.5-0.5-0.8-0.7c-2-1.4-4.4-0.6-6.6-1.1c-0.4,0-0.7,0-1.1,0
		c-1.3,0.2-2.7,0.1-4,0c-3.7,0.3-8-0.4-9.5,4.5c-2.4,1-3.4,3.4-5,5.2c-1,0.7-2.2,1-3.4,1c-7.9,0.1-15.8,0.1-23.6,0
		c-1.2,0-2.4-0.2-3.4-0.9c-11.1-7.6-22.7-14.7-33.7-22.4c-0.7-0.5-1.2-1-1.8-1.6c-0.4-0.4-0.8-0.7-1.3-0.9c-0.3-0.1-0.6-0.2-0.9-0.3
		c-0.5,0-0.9,0-1.4,0.1c-0.5,0.2-1,0.2-1.5,0.2c-1.5,0.1-2.6,1-3.9,1.7c-1.7,1-3.4,1.5-4.8-0.4c-1-2.1,0.2-4.3,0-6.4
		c0.4-5.2,3-9.7,5.1-14.3c0.8-8.4,6.4-8.9,13-7.9c0,0.1-0.1,0.3-0.1,0.4c-5.1,14.6-5.1,14.6,8.1,23c7.2,4.6,14.6,9,21.4,14.2
		c6.2,4.7,12.9,5.3,20.1,4.9c4.7-0.2,4.6-4.9,5.7-7.4c1.3-3,2.5-3.9,5.3-3.9c11.4,0.1,22.8,0.7,34.1-0.2c6.7-0.6,6.5,4.8,8.2,7.6
		c2.3,3.8,4.8,3.9,8.2,3.9C419.1,282.2,422.8,282.3,426.6,282.3z"/>
	<path class="st15" d="M341.6,267.1c-2.1-0.7-6,1.1-6-2.1c0.1-3.4,4.1-1.9,6.3-1.9c2.1,0,5.9-1.3,5.7,2.1
		C347.5,268.2,343.7,266.4,341.6,267.1z"/>
	<path class="st18" d="M351.8,249.8c2.4,0.8,6.3-1.1,6.3,2.1c0.1,3.3-3.7,2-5.9,2c-2.2,0-6,1.2-6.1-1.9
		C346.2,248.5,350.2,251,351.8,249.8z"/>
	<path class="st14" d="M405.3,250.2c-2.1-0.8-5.9,1.2-5.9-2.1c0-3.2,3.8-2,6-2c2.2,0,6-1.3,6,1.9
		C411.3,251.3,407.5,249.5,405.3,250.2z"/>
	<path class="st14" d="M412.2,267.1c-2.2-0.7-5.9,1-5.9-2.1c0-3.4,3.7-2,5.8-2c2-0.1,5.7-1.1,5.7,1.8
		C417.8,268.4,413.9,266.1,412.2,267.1z"/>
	<path class="st12" d="M318.3,251.8c-1.9-0.7-5.4,1-5.3-1.9c0.1-3.4,3.7-2.1,5.9-2.1c2.1,0,5.8-1,5.6,1.9
		C324.3,253.3,320.3,250.9,318.3,251.8z"/>
	<path class="st12" d="M380.2,259.8c-2.2-0.6-5.9,1.1-6-2.2c-0.1-3.2,3.6-1.8,5.6-1.8c2.2,0,5.9-1.2,6,2
		C385.8,261,382.1,259.1,380.2,259.8z"/>
	<path class="st1" d="M234.2,239.7c3.7-0.1,7.5-0.2,11.2-0.3c1.6,2.2,3.1,4.5,4.7,6.7c0.5,0.3,0.8,1,1.4,1.2
		c0.4,0.2,0.8,0.5,1.2,0.8c0.3,0.2,0.5,0.3,0.8,0.5c0.4,0.2,0.8,0.6,1.1,1c0.2,0.2,0.4,0.5,0.5,0.8c0.3,0.4,0.4,0.8,0.6,1.2
		c0.1,0.3,0.2,0.6,0.2,0.9c0,0.5,0.1,1,0.1,1.5c0,0.3,0.1,0.7,0.1,1c0.1,0.5,0.3,1,0.5,1.5c0.2,0.3,0.4,0.7,0.6,1
		c1,3.4,2.8,6.6,1.4,10.3c-2.5,2.6-4.4-0.8-6.7-0.7c-0.5-0.1-1.1,0-1.6,0c-1.1,0.1-2,0.5-2.8,1.2c-5.5,4.9-11.8,8.6-18.2,12.1
		c-1.2,0.7-2,1.8-3.1,2.5c-4.3,2.4-8.2,5.5-12.4,8c-1.5,0.9-2.9,2-4.7,2.1c-9.2,0.2-18.3,0.9-27.5-0.4c-2.7-2.5-4.2-6-6.6-8.7
		c-0.5-0.3-0.9-0.6-1.5-0.8c-4.4-0.9-8.8-1.9-13.2-0.5c-5.3,0.9-5.8,1.5-6.3,6.8c-0.2,1.8,0.1,3.8-2.2,4.6c-0.8,0.2-1.5,0.6-2.3,0.4
		c-7.7-2-15.6-0.9-23.4-1.2c-2-0.1-4-0.2-5.4-1.9c0-3.2,0.1-6.4,0.1-9.7c4.2,0,8.4-0.6,12.4,0.1c6.3,1.1,7.8-3.2,9.1-7.4
		c0.8-2.5,1.9-3.2,4.2-3.2c12.3,0,24.7,0.2,37-0.1c5.8-0.1,3.5,6,6.8,8.1c1.8,1.2,3.2,2.1,5.3,2.5c13.6,2.5,21.8-7.7,31.9-13.3
		c5.2-2.9,9.9-6.9,15-10.1c2.2-1.4,2.2-2.5,0.9-4.4C240.2,249.1,237.2,244.4,234.2,239.7z"/>
	<path class="st16" d="M160.5,247.5c2.1,0.7,6-1.2,5.9,2.2c0,3.2-3.9,1.9-6,1.9c-2.2,0-6,1.2-5.9-2
		C154.6,246.3,158.5,248.3,160.5,247.5z"/>
	<path class="st13" d="M140.5,257.9c2.2,0.9,6-1.2,6,2.3c0,2.9-3.6,1.9-5.7,1.9c-2.1-0.1-5.9,1.2-5.8-2.2
		C135,256.8,138.7,258.8,140.5,257.9z"/>
	<path class="st16" d="M191.5,259.9c-2.2-0.7-5.9,0.9-5.8-2.2c0.1-3.2,3.8-1.9,6-1.9c2-0.1,5.6-1,5.5,2
		C197.1,261.3,193.3,258.9,191.5,259.9z"/>
	<path class="st16" d="M200.2,246.7c2.1,0.7,5.8-1.2,5.8,2.2c0,2.9-3.6,1.8-5.6,1.8c-2.1,0-5.8,1.2-5.8-2.1
		C194.6,245.6,198.2,247.4,200.2,246.7z"/>
	<path class="st19" d="M316.6,76.9c-4.8,0.6-9.4,1.3-13.7,3.5c-0.5,0.3-1.2,0.2-1.8,0.3c0.1-0.4,0.1-0.8,0.2-1.1
		c2.1-5.2,13.1-9.8,18.5-7.7c2.6,1,5.1,3,4.5,5.4c-0.5,2.1-3.3-0.3-5.1-0.1C318.4,77.3,317.5,77,316.6,76.9z"/>
	<path class="st19" d="M271.3,70.4c-3.8,0-7.1,0.9-9.9,3.6c-0.4,0.4-1.1,0.6-1.7,0.8c-0.1-0.5-0.4-1-0.3-1.4c1.2-3.6,3.3-6.5,6.8-8
		c3.1-1.3,6.4-1,9,1.5c1,0.9,2.9,1.8,2.2,3.4c-0.7,1.5-2.4,0.2-3.7,0.2C272.9,70.6,272.1,70.5,271.3,70.4z"/>
	<path class="st19" d="M239.8,107.5c4.3-0.8,6.5,2.1,8.8,4.9c-3,2.3-6.1,0.8-9,0.1c-1.9-0.5-1.2-2.6-0.6-4.2
		C239.2,108,239.5,107.8,239.8,107.5L239.8,107.5z"/>
	<path class="st20" d="M239.8,107.5c-0.3,0.3-0.5,0.5-0.8,0.8C239.2,108,239.5,107.7,239.8,107.5z"/>
	<path class="st3" d="M268.8,217.8c-4.8-0.4-7.5,2.2-8.9,6.4c-1.3-3.6-1.3-7.4-2.1-11.1c-0.3-1.6,0.2-2.5,1.3-3.4
		c-2.2-5.3-2.2-9.3,5.2-9.7c4.4-0.2,7.2,0.4,6.1,5.6C271.6,210,271.4,214.1,268.8,217.8z"/>
	<path class="st19" d="M268.8,217.8c0.5-4,1.1-8.1,1.6-12.1c1.2-2.8,2.4-5.6,3.7-8.4c0.4-0.9,1.2-1.6,1.9-2.4
		c1.2,1.2-0.2,2.2-0.2,3.2c-0.1,0.9-0.3,1.8-0.5,2.7c-0.9,0.9,0.1,2.3-0.8,3.2c0,0.3,0,0.5,0,0.8c-0.5,0.4-0.3,1.2-0.8,1.6v0
		c-0.9,0.9,0.1,2.3-0.8,3.2c-0.3,2.4-0.5,4.8-0.8,7.2c-1.3,3.2-0.6,6.6-0.8,9.9c0,0.6-0.2,1.3-0.3,1.9c-0.3-0.6-0.9-1.2-1-1.9
		C269.4,223.9,269.1,220.9,268.8,217.8z"/>
	<path class="st19" d="M259.1,209.8c0.3,4.8,0.5,9.7,0.8,14.5c0,0.3,0,0.5,0,0.8c-0.3,0.6-0.5,0.6-0.8,0c0,0,0,0,0,0
		c0-0.8,0-1.6,0-2.4c-0.5-0.4-0.3-1.2-0.8-1.6l0,0c-0.5-0.4-0.3-1.2-0.8-1.6c-0.5-1.9-1.1-3.8-1.6-5.6c-0.5-3.6-1.9-6.8-4-9.7
		c-0.4-1.6-0.8-3.2-1.3-4.8c2.2,0.4,3.2,2.2,4.4,3.7C256.6,205.1,257.7,207.5,259.1,209.8z"/>
	<path class="st19" d="M306.6,167c3.9,0.1,8-0.5,11.3,2.5c0.7,1.9,1.7,4.3,0.3,5.7c-1.5,1.4-3.4-0.8-4.9-1.6
		c-3.6-2-7.5-1.6-11.4-1.7c-1,0-3.1,1.3-2.5-1.5c0.3-0.3,0.5-0.6,0.8-0.8l0,0c0.2-0.3,0.6-0.6,0.9-0.8c0.2,0,0.5,0,0.7-0.1
		c0.2-0.3,0.6-0.5,0.8-0.8C304,167.6,305.3,167.3,306.6,167z"/>
	<path class="st9" d="M301.1,168.7c-0.3,0.3-0.6,0.5-0.9,0.8C300.5,169.3,300.8,169,301.1,168.7z"/>
	<path class="st9" d="M300.2,169.5c-0.3,0.3-0.5,0.6-0.8,0.8C299.7,170.1,299.9,169.8,300.2,169.5z"/>
	<path class="st9" d="M302.6,167.9c-0.3,0.3-0.6,0.5-0.8,0.8C302.1,168.4,302.4,168.2,302.6,167.9z"/>
	<path class="st19" d="M321.3,121.7c-2.9,0.4-5.8,0.8-8.7,1.1c-1,0.1-1.9,0-2.9,0c0.7-0.6,1.3-1.3,2.1-1.7
		c5.4-3.1,11.1-4.4,17.3-3.9c2.2,0.2,4.2,0.9,5.4,2.9c0.7,1.1,1.5,2.5,0.7,3.7c-1,1.3-2.2,0.1-3.2-0.3
		C328.5,122.1,324.9,121.8,321.3,121.7z"/>
	<path class="st3" d="M254.3,254.9c-0.1-0.2-0.1-0.3-0.1-0.5c-0.1-0.4-0.4-0.7-0.7-1.1c-0.1-0.3-0.1-0.5-0.2-0.8
		c0.1-0.7-0.2-1.2-0.7-1.7l0,0c-0.4-0.5-0.3-1.2-0.8-1.7l0,0c-0.1-0.2-0.2-0.4-0.3-0.6c0-0.2,0-0.4-0.1-0.6
		c-0.2-0.1-0.3-0.3-0.5-0.4c-0.3-0.5-0.6-1.1-0.9-1.6c9.6,1.7,19.1,3.7,28.9,1.4c2.4-0.6,2.6,2.5,3.5,4.2c0.7,3.2-0.6,5.7-2.6,8
		c-4.7-0.3-9.4-0.8-14,1.1c-2.2,0-2.2-1.8-2.9-3.2c-0.8-1.8-1.8-3.5-2.6-5.3c-0.1-0.2-0.1-0.4,0-0.6c-0.1,0.2-0.1,0.4-0.1,0.6
		c0.6,2.4,3.1,4.2,2.5,7.1c-3.2,1.6-5.8,0.7-7.8-2.7l0,0C254.6,256.1,254.8,255.4,254.3,254.9z"/>
	<path class="st3" d="M291.2,247.7c-1.1,4.8-2.1,9.7-3.2,14.5c-0.7,1.6-2.2,2.6-3.4,3.8c-1.3,1.4-2.9,1.8-4.5,0.2
		c-1-5.9,1.9-10.6,4.8-15.3C289,253.7,288.4,247.4,291.2,247.7z"/>
	<path class="st19" d="M284.9,250.9c-0.6,5.3-4.3,9.8-4.1,15.3c0.1,0.2,0.1,0.4,0.2,0.7c-0.7,4.2,0.6,8.5-0.7,12.7
		c-0.6,1.1-1.1,2.3-2.6,2c-1.4-0.3-1.7-1.5-1.9-2.8c-0.3-1.7-0.4-3.4-0.6-5.1c0.4-3.8,0.7-7.5,1.3-11.3c0.3-1.6,0.8-3.1,2.7-3.4
		c1.1-2.4,2.1-4.8,3.2-7.3c1.1-1.1,2.1-2.1,3.2-3.2l0,0C285.4,249.3,285.2,250.1,284.9,250.9z"/>
	<path class="st21" d="M285.7,248.4c0-0.1,0.1-0.2,0.1-0.3C285.7,248.2,285.7,248.3,285.7,248.4L285.7,248.4z"/>
	<path class="st22" d="M152,292.9c0-1.3,0.1-2.7-0.1-4c-1.1-6.5,1.5-9.4,8.2-8.3c2.6-0.8,3.8,0.4,4.1,2.8c0.2,1.6,0.2,3.2,0.2,4.8
		c0,20.2,0,40.4,0,60.7c0,1.1,0,2.1-0.1,3.2c-0.3,4-0.9,4.7-4.8,4.6c-2.5,0-5.1,0.5-7.6-0.4c0-4,0-8,0-12.1c-1-0.8-1.6-1.9-1.5-3.2
		c-0.5-3.2-0.5-6.4-0.2-9.5c0.2-2.1,0.1-4.2,0-6.3c0-0.5,0-1-0.1-1.5c-0.4-3.9-0.4-7.7,0-11.6c0.3-1.8-0.1-3.7,0.6-5.5
		c0.3-0.7,0.7-1.3,0.9-1.9c0-1.3,0-2.7,0-4C150.4,298.1,149.1,295.5,152,292.9z"/>
	<path class="st23" d="M152,331.4c-0.1,3.3-0.1,6.5-0.2,9.8c-1.3,1.6-3.1,1.7-4.9,1.7c-7.2,0.3-14.4,0.2-21.7,0.1
		c-1.8,0-3.5-0.3-4.6-2c0-5.3,0-10.7,0-16c0.8-1,1.7-1.7,3-1.8c8.2-0.2,16.4-0.9,24.6,0.4c1.8,0.8,2.2,2.7,2.2,4.2
		C150.5,329.3,150.9,330.4,152,331.4z"/>
	<path class="st24" d="M148.8,325.1c-9.4,0-18.8,0-28.2,0c-0.3-13.8-0.3-13.8,13.6-13.8c4.8,0,9.6,0,14.4,0c1.3-0.4,2.5-0.3,3.3,1
		c0,4-0.1,7.9-0.1,11.9c-0.6,1-1.4,1.4-2.5,1.1C149.2,325.1,149,325.1,148.8,325.1z"/>
	<path class="st24" d="M152,292.9c0,2.7-0.1,5.3-0.1,8c-7.4-1.8-14.9-1.1-22.3-0.7c-7.2,0.4-10.3-1.7-9-9c6.4,0,12.9,0.2,19.3,0.1
		C144,291.2,148,291.4,152,292.9z"/>
	<path class="st24" d="M120.6,341c10.4,0.1,20.8,0.1,31.2,0.2c0.1,1,0.1,2.1,0.2,3.1c-10.3,3.3-20.9,1-31.4,1.7
		C120.6,344.3,120.6,342.7,120.6,341z"/>
	<path class="st25" d="M152,312.2c-1.1-0.3-2.2-0.6-3.3-1c0.1-1.6,0.1-3.1,0.2-4.7c1-0.8,2.1-0.5,3.2-0.3
		C151.9,308.2,151.9,310.2,152,312.2z"/>
	<path class="st24" d="M151.9,306.2c-1.1,0.1-2.1,0.2-3.2,0.3c1-0.6,2-1.1,3.1-1.7C151.9,305.3,151.9,305.8,151.9,306.2z"/>
	<path class="st22" d="M384.8,280.7c0.3,0,0.5,0,0.8-0.1c2.9-0.5,5.9-0.6,8.8,0c0.3,0,0.5,0,0.8,0c0.4,4,1.6,7.9,2,11.9
		c0.3,2.8-0.3,5.4-1.4,8c-0.6,1.4-0.5,3.3,0.3,5c0.9,0.3,1.7,0.6,2.6,0.9c-0.1,0.2-0.2,0.3-0.3,0.5c-2.2,1.5-1.3,3.8-1.4,5.9
		c0.5,3.9,0.2,7.9,0.3,11.8c-0.4,2.4-0.2,4.8,0,7.1c0,4.3-0.1,8.6-0.2,13c0.4,3.6-2,6.9-1.5,10.6c0.1,0.9-0.8,1.3-1.7,1.3
		c-3-0.2-6.1,0.5-9.1-0.4l0,0c-1.8-1.2-2-3.1-2-5c-0.1-21.9-0.1-43.7,0-65.6C382.8,283.8,383,281.9,384.8,280.7z"/>
	<path class="st23" d="M395.2,344.4c0.3-4.4-0.6-8.8,0.8-13.1c1.7-2.3-0.1-5.8,2.7-7.7c8.3-1.3,16.6-0.6,24.9-0.4
		c1.3,0,2.2,0.8,3,1.8c0,5.6,0,11.2,0,16.8c-1.3,1.9-3.4,2-5.4,2c-7.1,0-14.2,0.3-21.2-0.2c-1.3-0.1-2.3,0.1-3.3,0.9
		C396.2,344.7,395.7,344.6,395.2,344.4z"/>
	<path class="st24" d="M426.6,325c-9.4,0-18.8,0-28.2,0c-0.8,0.6-1.5,0.7-2.3,0c-1.4-4.2-0.3-8.5-0.8-12.8c2-1.4,1.1-4.3,3-5.8
		c0.1,0,0.3,0.1,0.4,0.1c0.3,3.9,2.5,5,6.3,4.8c5.3-0.3,10.7,0.2,16.1-0.1c4.4-0.3,6.1,1.4,5.7,5.8
		C426.4,319.6,426.6,322.3,426.6,325z"/>
	<path class="st24" d="M396.1,305.6c-1.3-4.3-1-8.5,0-12.8c0.4-1.3,1.4-1.4,2.5-1.4c9.4-0.1,18.7-0.2,28.1-0.3
		c1.3,7.3-1.7,9.8-8.9,9c-5.3-0.6-10.7,0.1-16-0.2C397.4,299.7,395.4,301.2,396.1,305.6z"/>
	<path class="st7" d="M396.1,344.2c0.5-2.6,2.6-2.3,4.4-2.3c8.7,0,17.4,0,26.1-0.1c0,1.4,0,2.8,0,4.1c-9.2,0.9-18.4-0.1-27.6,0.5
		C397.4,346.5,396.5,345.6,396.1,344.2z"/>
	<path class="st26" d="M396.1,344.2c10,3.6,20.4,0.9,30.5,1.8c0,0.2,0,0.5-0.1,0.7c-6.8,0-13.7,0.3-20.5-0.1
		c-5.9-0.3-8.2,2.8-10.2,7.7c-2.3,5.5-7.2,2.4-11.1,2c12,0,10.4,1.7,10.5-12C395.5,344.3,395.8,344.3,396.1,344.2z"/>
	<path class="st21" d="M259.1,225.1c0.3,0,0.5,0,0.8,0c0,0.5,0,1.1,0,1.6c-0.3,0.5-0.5,0.5-0.8,0
		C259.1,226.2,259.1,225.6,259.1,225.1z"/>
	<path class="st8" d="M259.1,226.7c0.3,0,0.5,0,0.8,0C259.6,227.3,259.4,227.3,259.1,226.7z"/>
	<path class="st19" d="M226.9,170.3c-2.2-0.3-4.5-0.6-6.7-0.8c-1.9-0.2-3.9-0.3-4.4-2.6c-0.4-2.3,0.8-3.9,2.7-4.9
		c4.5-2.5,8.1-0.5,11.1,2.7c2.7,2.8,6,5.3,6.2,9.8C233.1,172.4,230.1,171,226.9,170.3z"/>
	<path class="st19" d="M216.7,127.5c-1.5,0.2-4.3,0.6-7,1c-1.7,0.3-3.7,0.7-4.2-1.7c-0.5-2.1,0.8-3.8,2.7-4.3
		c5.1-1.4,9.9-0.7,13.7,3.2c2.2,2.3,0.2,2.1-1.4,2C219.6,127.6,218.8,127.6,216.7,127.5z"/>
	<path class="st19" d="M310.6,39.1c2.1,0.3,4.3,0.3,5.2,2.5c0.3,0.7,0,1.9-0.5,2.5c-1.7,1.9-3.1-0.1-4.6-0.5c-0.5-0.1-1-0.2-1.5-0.4
		c-1.9-0.6-6,0.1-5.6-0.9C304.5,39.6,307.9,39.5,310.6,39.1z"/>
	<path class="st21" d="M257.5,219.4c0.3,0.5,0.5,1.1,0.8,1.6C258,220.5,257.8,220,257.5,219.4z"/>
	<path class="st21" d="M258.3,221.1c0.3,0.5,0.5,1.1,0.8,1.6C258.8,222.1,258.6,221.6,258.3,221.1z"/>
	<path class="st27" d="M272.8,209.8c0.3-1.1,0.5-2.1,0.8-3.2C273.3,207.6,273.1,208.7,272.8,209.8z"/>
	<path class="st27" d="M274.4,204.1c0.3-1.1,0.5-2.1,0.8-3.2C274.9,202,274.7,203.1,274.4,204.1z"/>
	<path class="st27" d="M273.6,206.6c0.3-0.5,0.5-1.1,0.8-1.6C274.1,205.5,273.9,206,273.6,206.6z"/>
	<path class="st3" d="M178.6,344.2c-0.3,0.1-0.5,0.1-0.8,0.2c-3.5-4.4-2.3-9.1-0.7-13.8c2.8-1.2,2.1-4.2,3.2-6.3
		c1.6-1.7,3.7-1.3,5.7-1.3c8.6-0.1,17.2-0.1,25.7,0c3.8,0,7.1-0.9,10.1-3.2c12.4-9.1,25.1-17.8,37.4-27.1c0.6-0.2,1.2-0.2,1.9-0.1
		c2.7,1.1,5.8,0.5,8.4,2c3.7,2.1,4.3,3.5,2.4,7.2c-1.4,2.8-1.2,6.3-3.6,8.7c-1,1,0.2,2.2,0.5,3.3c0.2,2.2-1.5,3-2.9,4
		c-4.6,3.4-9.6,6.2-14.6,9c-8.3,5.5-16.9,10.4-25.5,15.3c-1.6,0.9-3.3,0.9-5.1,0.9c-12.7,0-25.5,0.1-38.2-0.1
		C181,342.9,179.6,342.9,178.6,344.2z"/>
	<path class="st28" d="M369.4,286.3c-0.4-9.3,6.7-4.5,10.5-5.7c1.8,1.4,1.9,3.4,1.9,5.5c0.1,21.6,0.1,43.1,0,64.7
		c0,5.3-0.9,6.1-6.1,6c-2.1,0-4.3,0.6-6.3-0.5c0-4,0-8,0-12c-0.6-0.6-1.3-1.3-1.3-2.3c-0.7-3.5-0.9-7.1-1.5-10.6
		c1.1-2.2,1.3-4.5,1.1-6.9c-0.4-3.8-0.4-7.6,0-11.4c0.1-2.3,0.6-4.8-1.5-6.6c-0.4-2.6,2-4.7,1.4-7.3c-0.3-2.3,0-4.5,0.1-6.8
		C367.6,290.2,368,288.1,369.4,286.3z"/>
	<path class="st22" d="M179.4,331.4c-3.2,4-0.9,8.7-1.6,13.1c0,0.5,0,1.1,0,1.6c0.1,10.6,0.1,10.6-10.5,10.3
		c-1.8-1.4-1.9-3.4-1.9-5.5c-0.1-21.7-0.1-43.4,0-65.1c0-5,0.7-5.6,5.6-5.5c1.5,0,2.9-0.3,4.4,0.3c0.5,0,1.1,0.1,1.6,0.1
		c1.9,3.7,1.7,7.8,2.7,11.7c0,0.6-0.1,1.3-0.5,1.8c-3.4,2.6-3.4,3.1-0.6,5.8c1.2,0.9,1.9,2.3,2.5,3.6c0.6,0.8,1,1.6,0.8,2.7
		c-0.1,0.4-0.3,0.7-0.5,1c-0.4,0.4-0.7,0.8-1.1,1.2c-1,1.4-1.1,3-0.9,4.7c0.7,3.7,0.3,7.4,0.4,11.2
		C179.3,326.7,179.8,329,179.4,331.4z"/>
	<path class="st24" d="M369.4,341.9c0,0.8,0.1,1.6,0.1,2.4c-15.2,3.5-30.6,0.9-45.8,1.5c-1.4,0.1-3-0.9-4.4-1.8
		c-13.8-8.4-27.7-16.8-41.4-25.5c-3.4-2.2-5.9-2.3-9.3,0.1c-5,3.5-10.5,6.5-15.7,9.7c-2.5-0.1-2.6-1.5-1.8-3.3
		c5.6-3.7,11.3-7.5,16.9-11.2c0.1-0.2,0.2-0.4,0.3-0.6c0.3-0.3,0.7-0.6,1.1-0.8c3.8-2.7,7.4-1.2,10.8,0.7c5.7,3,11.2,6.4,16.5,9.9
		c7.6,5.1,15.7,9.1,23.4,14.1c3.4,2.2,7.1,2.9,11.1,2.9c10.7-0.1,21.4-0.1,32.1,0C365.4,339.9,367.8,339.7,369.4,341.9z"/>
	<path class="st29" d="M175.3,280.6c-6.6-1.1-8.3,1.7-8.2,8.2c0.4,22.5,0.1,45,0.1,67.6c-5.1,0.8-10.2,1.6-15.3,0
		c12,0,10.4,1.2,10.5-10.4c0.1-20,0-40.1,0-60.1c0-2,0.7-4.5-2.4-5.2C165.1,279.4,170.2,279.4,175.3,280.6z"/>
	<path class="st30" d="M369.5,356.3c10.5,0.5,10.5,0.5,10.5-10c0-21.9,0-43.7,0-65.6c1.6,0,3.2,0,4.8,0c0,25.2,0,50.4,0,75.7
		C379.7,356.5,374.6,358.4,369.5,356.3z"/>
	<path class="st24" d="M251,325c0.6,1.1,1.2,2.2,1.8,3.3c-8.8,5.6-17.6,11.2-26.4,16.7c-1.4,0.8-3.3,0.9-5,1
		c-12,0.1-24.1-0.1-36.1,0.1c-2.6,0-4.4-1.5-6.7-1.8c0-3.2,2.3-3.1,4.5-3.1c9.6,0,19.3-0.5,28.9,0.2c8.5,0.6,15.7-1.8,22.6-6.4
		C239.9,331.3,245.5,328.2,251,325z"/>
	<path class="st3" d="M268,313.7c-2.4-1.4-3.1-3.4-1.6-5.7c6.4-9.8,6.5-9.8-4.6-13.1c-0.4-0.1-0.7-0.3-1.1-0.5
		c1.8-3-1.8-4.6-1.8-7.2c-0.6-2.4,1.8-4.4,0.8-6.9c-0.6-1.5-3-1.9-2.6-4.1c0.3-2.4-1.4-4.9,0.2-7.3c0.4-0.3,0.9-0.6,1.3-1
		c3.7-3.5,5-3.3,7.2,1.2c1.2,2.3,1,5,1.7,7.5c0.1,0.3,0.1,0.7,0,1c0.1-0.2,0-0.5,0-0.7c0,0,0.1-0.1,0.1-0.4c0-0.4,0-0.8,0-1.2
		c0-1.3-0.1-2.7,0.3-4c0.6-2,0.7-4.5,3.7-4.4c2.8,0,4.9,1.1,5.6,4.1c0.2,0.8,0,1.6,0.5,2.3c0,1.9,0,3.7,0.1,5.6c0,0.8,0.4,0.9,0.7,0
		c0.1-0.2,0-0.5,0.1-0.8c1.7-3.8,2.1-8,2.4-12.1c0,0,0,0,0,0c2.4-1.3,4.8-2.7,7.1-4c-0.2,2.1-0.4,4.3-0.6,6.4
		c1.8,1.3,1.5,3.3,0.9,4.8c-2.5,6.7-1.7,13.8-2.8,20.7c0,3.5-0.2,7,0.3,10.6c0.7,4.9-2.6,7.4-8.6,7.2c-2.6-0.1-5.4-0.7-7.8,1
		C268.9,313.2,268.4,313.3,268,313.7L268,313.7z"/>
	<path class="st24" d="M369.4,292.9c0,2.4,0,4.8-0.1,7.2c-1.3,1.7-3.1,1.9-5,1.9c-8.9,0.1-17.7,0.1-26.6,0c-2.8,0-5.2-1.2-7.4-2.8
		c-8.8-6.2-17.7-12.1-26.3-18.6c-4-2.4-5.2-6.8-7.5-10.4c-0.2-0.4-0.4-0.7-0.6-1.1c-0.2-0.4-0.4-0.8-0.5-1.1c-0.1-0.4-0.1-0.8,0-1.2
		c0.2-0.4,0.4-0.7,0.6-1.1c0.5-0.4,1.1-0.6,1.7-0.4c0.3,0.1,0.5,0.2,0.7,0.4c0.3,0.1,0.5,0.3,0.7,0.6c11,7.2,22.1,14.2,32.9,21.5
		c3.8,2.6,7.6,3.9,12.3,3.7c6.9-0.3,13.9-0.2,20.9-0.2C367.5,290.1,368.3,291.7,369.4,292.9z"/>
	<path class="st31" d="M298.5,268.9c1.9,3.4,3.9,6.8,5.8,10.2c0.7,0.8,1.5,1.5,1,2.7c-0.2,0.3-0.5,0.6-0.9,0.8c-3.4,1-6-1.2-8.9-2.3
		c-1.4-0.5-2.8-1.8-4.3-0.3c-2.7,2.3-1.5,5-1,7.7c0.6,2.8,1.6,5.9-2.2,7.4c-1.3,0.9-2.6,1.1-4,0c0-9,1.4-17.8,3.3-26.6
		c2.7-1.6,5.3-3.2,8-4.8c0.3,0.3,0.8,0.4,1.1,0.8c0.4,0.5,0.1,1.2,0.5,1.7c0.1,0.3,0.2,0.5,0.3,0.8c0.1,0.3,0.3,0.5,0.6,0.7l0,0
		C298.1,268.1,298.4,268.4,298.5,268.9z"/>
	<path class="st29" d="M398.6,291.5c-0.3,1.4-1.4,1.3-2.5,1.4c-1.6-3.9-0.4-8.1-0.9-12.1C396.3,284.3,397.4,287.9,398.6,291.5z"/>
	<path class="st30" d="M369.4,292.9c-1.6,0-3-0.5-4-1.7c-0.2-2.9,1.7-4,4-4.8C369.4,288.5,369.4,290.7,369.4,292.9z"/>
	<path class="st30" d="M394.4,280.6c-2.9,0-5.9,0-8.8,0C388.5,279.5,391.5,279.5,394.4,280.6z"/>
	<path class="st32" d="M296.9,266.2c-0.3-0.5-0.6-1.1-1-1.6c0.3-0.4,0.7-0.4,1-0.1c0.3,0.3,0.6,0.5,0.9,0.8
		C297.6,265.6,297.3,265.9,296.9,266.2z"/>
	<path class="st11" d="M297,264.5c-0.3,0-0.7,0-1,0.1c-0.2-0.3-0.4-0.5-0.7-0.8C295.9,264,296.5,264.2,297,264.5z"/>
	<path class="st32" d="M299.3,266.2c-0.2-0.2-0.5-0.4-0.7-0.6C298.9,265.8,299.1,266,299.3,266.2z"/>
	<path class="st33" d="M177.8,293.6c0.3-0.2,0.5-0.5,0.8-0.7c0.3-1.3,1.3-1.5,2.4-1.5c4.1,0,8.4-0.7,12.4,0
		c12.9,2.3,22.8-4,32.6-10.8c4.1,0.3,4.3,0.5,5.2,7.2c-0.1,1.5-1.3,2.3-2.4,3c-2.7,1.8-5.3,3.6-7.8,5.7c-5.2,4.3-11,6.2-17.8,5.7
		c-5.2-0.4-10.4,0-15.7-0.1c-3.5,0-6.6,0.9-9,3.7c-0.3-1.6-0.7-3.2-1-4.8C176.3,298.3,176,295.9,177.8,293.6z"/>
	<path class="st6" d="M230.1,287.1c-2.7-1.3-0.9-5.5-4.1-6.5c8.1-5.4,16.1-10.8,24.2-16.1c0.4-0.3,0.7-0.3,1.1,0
		c1.3,1.3,0.9,2.8,0.1,4.1c-2.7,4.4-4.6,9.3-8.3,13c-3.1,1.6-6,3.5-8.9,5.4C232.9,287.8,231.6,288.9,230.1,287.1z"/>
	<path class="st31" d="M242.2,280.7c3-5.4,6-10.7,8.9-16.1c0.2-0.4,0.4-0.6,0.8-0.8c1.9,1.3,3.8,2.6,5.8,4c1.1,0.2,1.2,0.8,0.8,1.7
		c-0.2,2.5,1.8,5-0.2,7.4c-3.9,4.3-9.5,5.1-14.6,6.6C242.3,283.7,240,283,242.2,280.7z"/>
	<path class="st3" d="M258.4,269.4c-0.3-0.6-0.5-1.1-0.8-1.7c-0.9-3.7-1.8-7.5-2.6-11.2c3.2-1.7,4.7,2.1,7.3,2.4
		c3,2.5,3.2,6.1,3.5,9.6c-0.1,0.7-0.4,1.3-1.1,1.7C263.1,266.2,260.7,268.5,258.4,269.4z"/>
	<path class="st34" d="M181,291.4c-0.3,1.4-1.4,1.4-2.4,1.5c-0.6-4-1.1-8.1-1.7-12.1C178.7,284.1,180.7,287.4,181,291.4z"/>
	<path class="st35" d="M252.6,250.9c0.8,0.3,1.2,0.8,0.7,1.7C253.1,252,252.9,251.4,252.6,250.9z"/>
	<path class="st35" d="M250.9,247.7c0.3,0,0.6,0,0.9,0c0.2,0.2,0.3,0.3,0.2,0.5c-0.1,0.2-0.1,0.3-0.2,0.3c0,0.3,0,0.6,0,0.9
		C251.5,248.8,251.2,248.2,250.9,247.7z"/>
	<path class="st35" d="M251.8,249.2c0.3,0.6,0.6,1.1,0.8,1.7C252.4,250.4,252.1,249.8,251.8,249.2z"/>
	<path class="st35" d="M254.3,254.9c0.2,0.5,0.5,1.1,0.7,1.6C254.8,256,254.6,255.5,254.3,254.9z"/>
	<path class="st17" d="M251.9,263.7c-0.3,0.3-0.5,0.5-0.8,0.8c-0.3,0-0.6,0-0.9-0.1C250.8,264.2,251.3,264,251.9,263.7z"/>
	<path class="st35" d="M253.6,253.3c0.2,0.4,0.4,0.7,0.7,1.1C254,254,253.8,253.7,253.6,253.3z"/>
	<path class="st3" d="M277.6,273.4c-1.3-2.6-3.2-5.2-6.3-4.3c-3.4,1.1-2.2,4.8-2.6,7.5c-1.9-0.3-1.6-1.8-1.8-3.2
		c-0.2-1.5-0.4-3.1-0.9-4.6c0-1.8-0.5-3.6-1.1-5.3c-0.5-1.5-0.7-2.6,0.5-3.7c4.3-4,9-3.1,13.7-0.8
		C278.1,263.7,277.4,268.5,277.6,273.4z"/>
	<path class="st19" d="M265.5,259.7c0.5,2.9,1.1,5.9,1.6,8.8c-0.7,1.6-0.9,1.6-2.4,0c-0.8-3.2-1.6-6.4-2.5-9.7
		c-0.8-2.7-1.6-5.4-2.4-8c0.3-0.3,0.5-0.3,0.8,0C262.3,253.8,263.9,256.8,265.5,259.7z"/>
	<path class="st36" d="M260.7,250.9c-0.3,0-0.5,0-0.8,0C260.2,250.9,260.4,250.9,260.7,250.9z"/>
	<path class="st36" d="M251.9,248.4c0-0.3,0-0.5,0-0.8C251.9,247.9,251.9,248.2,251.9,248.4z"/>
	<path class="st19" d="M280.8,266.2c1.1,4.4,0.4,8.4-2.4,12.1C279.2,274.2,280,270.2,280.8,266.2z"/>
	<path class="st37" d="M152,331.4c-4.8-0.2-2.7-3.9-3.1-6.3c0,0-0.1,0-0.1,0c1.1-0.7,2.1-0.8,3.2,0.1C152,327.2,152,329.3,152,331.4
		z"/>
	<path class="st23" d="M152,325.1c-1.1,0-2.1,0-3.2-0.1c1-0.3,2.1-0.6,3.1-1C151.9,324.4,151.9,324.8,152,325.1z"/>
	<path class="st29" d="M396,325c0.8,0,1.5,0,2.3,0c-0.4,2.2,1.8,5.4-2.3,6.3C395.1,329.2,395.1,327.1,396,325z"/>
	<path class="st38" d="M398.2,306.4c0.1,2.5,1.6,5.7-3,5.8C395.6,310,394.1,306.8,398.2,306.4z"/>
	<path class="st24" d="M262.3,279c-0.5,2.7-1,5.5-1.5,8.2c0.1,2.2,1.1,4.5-0.9,6.3c-2.9,5.2-8.5,7.1-12.9,10.5
		c-7.6,6-15.7,11.1-23.4,17c-3.7,2.8-7.6,4-12.3,3.9c-10.2-0.2-20.3,0-30.5,0c-0.8,0.6-1.5,0.7-2.3,0c-1.6-4.2-0.4-8.6-0.8-12.8
		c0.4-0.5,0.8-0.9,1.3-1.2c0.4-0.2,0.7-0.4,1.1-0.6c0.6-0.3,1.2-0.4,1.8-0.6c7.6-1.2,15.2-0.7,22.7-0.4c7.2,0.2,13.4-1.3,18.9-6
		c0.5-0.4,1.1-0.7,1.7-0.9c0.4-0.1,0.8-0.2,1.2-0.2c4.1,0.8,4.6,0.4,6.3-5c8-5.8,16.1-11.6,24.3-17.1
		C258.7,279.2,260.4,278.8,262.3,279z"/>
	<path class="st37" d="M178.6,325c0.8,0,1.5,0,2.3,0c-0.2,2.2,1.3,4.7-1.5,6.3C177.4,329.5,177.6,327.3,178.6,325z"/>
	<path class="st31" d="M259.9,293.6c0.3-2.1,0.6-4.2,0.9-6.3c0.7,2.4,3.1,4.8-0.1,7.1C260.4,294.2,260.1,293.9,259.9,293.6z"/>
	<path class="st3" d="M284.1,295.2c1.1-0.5,2.2-0.9,3.3-1.4c4.8,1.3,8.5,4.5,12.3,7.4c8.6,6.6,17.7,12.6,26.5,19
		c2.8,2.1,6,2.9,9.4,2.9c8.6,0,17.2-0.1,25.7,0c2,0,4.1-0.3,5.7,1.3c1.4,2.2,0.4,4.7,0.9,7c3.1,3.2,1.1,7.1,1.6,10.6
		c-13.7,0-27.3-0.1-41,0c-2.8,0-5.2-0.6-7.6-2c-13.7-8.4-27.5-16.5-41.2-25c-3.6-2.2-6.9-3.3-10.8-1.2c-0.2-0.2-0.3-0.4-0.2-0.5
		c0.1-0.2,0.2-0.3,0.2-0.3c3.2-2.7,7.6-1.7,11.2-3.5c4.4-2.1,5.4-4.7,2-8.1c-2.3-2.3-2.3-2.4,0.4-3.3c1.2-0.4,0.7-0.8,0.2-1.3
		c-0.6-0.5-1.6-1.1-0.9-1.8C282,294.5,283.2,295,284.1,295.2z"/>
	<path class="st24" d="M366.4,325.1c-10.9-0.1-21.7-0.1-32.6-0.2c-2,0-4.1,0.1-5.8-1.1c-13.2-9.4-26.4-18.9-39.6-28.4
		c-0.5-0.4-0.7-1.1-1-1.7c3.6-2.5,0.6-5.4,0.2-7.9c-0.6-3.3-1.3-6.3,2.2-8.4c9.6,4.4,16.9,12,25.3,18.1c4.4,3.2,8.5,6.9,12.8,10.3
		c3,2.3,6.2,3.4,10,3.4c7.2-0.1,14.4,0,21.7,0c2.3,0,4.5,0.1,6.8,0.7c1.4,0.1,2.2,1.2,3.1,2.1c0,4.3,0,8.6,0,12.9
		C368.5,325.8,367.5,326,366.4,325.1z"/>
	<path class="st4" d="M366.2,311.3c-9,0-17.9-0.3-26.9,0.1c-5.4,0.2-9.8-1.1-13.9-4.7c-11.5-10.2-24.6-18.5-35.7-29.2
		c5.5-1.1,9.4,3.2,14.3,4.1c0.4,0.1,0.8,0.4,1-0.1c-0.3-0.8-0.6-1.6-0.8-2.4c8.6,5.8,17.4,11.5,25.9,17.5c3.2,2.3,6.4,3.5,10.4,3.5
		c9.6-0.2,19.3,0,28.9,0c0,2.4,1,5.3-2.5,6.4C367.7,308.2,368.6,310,366.2,311.3z"/>
	<path class="st29" d="M366.4,325.1c1,0,2-0.1,3-0.1c-0.1,2.2,0.5,4.6-1.6,6.3C365.6,329.6,366.6,327.2,366.4,325.1z"/>
	<path class="st39" d="M366.2,311.3c0.2-1.6,0.5-3.3,0.7-4.9c4.4,0.4,2,3.7,2.5,5.7C368.4,311.8,367.3,311.5,366.2,311.3z"/>
	<path class="st4" d="M262.3,279c-9.4,6.5-18.8,12.9-28.2,19.4c-1.7,2.8-4.2,4.5-7.3,5.6c-0.3,0-0.6,0-0.8,0.1
		c-0.3,0.2-0.5,0.5-0.8,0.8c-6.8,6.7-15.4,6.9-24.2,6.5c-6.6-0.3-13.3-0.1-20-0.1c-1.8-1.5-1.4-3.1-0.4-4.7
		c-0.7-0.3-1.5-0.6-2.2-0.9c-0.6-4.4,1.3-6,5.7-5.7c4.5,0.3,9.2-0.6,13.7,0.2c13.6,2.4,22.8-5.5,32.2-13c3.1-2,6.3-4.1,9.4-6
		c0.8-0.5,1.5-1.9,2.6-0.4c0.3,3,2,0.6,2.7,0.5c4.6-1.2,8.6-3.9,13.4-4.4C259.6,277.5,261,278.3,262.3,279z"/>
	<path class="st12" d="M177.8,293.6c-0.1,2.4-0.2,4.8-0.2,7.2C174.6,298.3,173.7,295.8,177.8,293.6z"/>
	<path class="st34" d="M180.1,312c-0.3,0-0.5,0-0.8,0c-2.1-1.5-1.2-3.5-0.7-5.4c0.5,0,1,0,1.5,0C180.9,308.4,180.8,310.2,180.1,312z
		"/>
	<path class="st25" d="M178.6,306.6c0.2,1.8,0.5,3.6,0.7,5.4c-0.5,0.1-1,0.2-1.6,0.2C177.9,310.3,177.4,308.3,178.6,306.6z"/>
	<path class="st25" d="M180.1,312c0-1.8,0-3.6,0-5.3c0.2,0,0.4-0.1,0.7-0.1c0.1,1.6,0.2,3.2,0.4,4.7
		C180.8,311.5,180.5,311.7,180.1,312z"/>
	<path class="st23" d="M268.8,312.9c0,0.3,0,0.5,0,0.8c-0.3,0-0.5,0-0.8,0C268.2,313.4,268.5,313.2,268.8,312.9z"/>
	<path class="st19" d="M264.8,268.6c0.8,0,1.6,0,2.4,0c0.5,2.7,1.1,5.4,1.6,8.1c-0.4,2.4,0.8,5-0.8,7.3c-0.6-2.4-1.1-4.8-1.7-7.1
		c-0.5-2.2-1-4.4-1.5-6.6C264.7,269.7,264.8,269.1,264.8,268.6z"/>
	<path class="st32" d="M298.5,268.9c-0.2-0.4-0.4-0.7-0.7-1.1C298,268.1,298.2,268.5,298.5,268.9z"/>
	<path class="st32" d="M297.8,267.7c-0.2-0.2-0.4-0.5-0.6-0.7C297.4,267.2,297.6,267.5,297.8,267.7z"/>
	<path class="st40" d="M305.1,281.5c0,0.2-0.1,0.4-0.1,0.6c-0.3-0.2-0.6-0.3-1-0.5C304.4,281.6,304.7,281.5,305.1,281.5z"/>
	<polygon class="st6" points="224.7,283.2 224.6,283.4 224.5,283.1 	"/>
	<path class="st41" d="M226.9,304c1.8-2.6,4.8-3.8,7.3-5.6C233.1,302.1,231.3,304.7,226.9,304z"/>
	<path class="st41" d="M225.3,304.8c0.3-0.3,0.5-0.5,0.8-0.8C225.8,304.3,225.5,304.6,225.3,304.8z"/>
</g>
</svg>
