<?xml version="1.0" encoding="utf-8"?>
<!-- Generator: Adobe Illustrator 25.0.0, SVG Export Plug-In . SVG Version: 6.00 Build 0)  -->
<svg version="1.1" id="Layer_1" xmlns="http://www.w3.org/2000/svg" xmlns:xlink="http://www.w3.org/1999/xlink" x="0px" y="0px"
	 viewBox="0 0 490.7 490.7" style="enable-background:new 0 0 490.7 490.7;" xml:space="preserve">
<style type="text/css">
	.st0{fill:#ED1C24;}
	.st1{fill:#FFFFFF;}
</style>
<g>
	<path class="st0" d="M245.4,420c-3.2-0.3-5-2.7-6.9-4.7C184,360.9,129.6,306.4,75.1,252c-5.1-5.1-5.6-8.6-0.2-13.9
		c54.6-54.3,109-108.7,163.3-163.4c5.6-5.6,9.2-5.3,14.7,0.1c54,54.3,108.2,108.5,162.6,162.6c5.4,5.4,5.9,9,0.2,14.7
		c-54.4,54-108.5,108.3-162.7,162.5C250.7,416.9,248.8,419.7,245.4,420z M246.6,389.5c1.7-1.5,3.9-3.2,5.9-5.2
		c44.2-44.2,88.3-88.4,132.7-132.5c5.2-5.2,5.4-8.4,0.1-13.6c-44.6-44.3-89.1-88.7-133.3-133.3c-4.9-4.9-7.9-5-12.9-0.1
		c-44.5,44.8-89.2,89.5-134.1,134.1c-4.5,4.5-4.7,7.5-0.1,12.1c45.1,44.8,90,89.8,134.9,134.7C241.5,387.4,243,389.6,246.6,389.5z"
		/>
	<path class="st1" d="M268.9,183.8c-3.8,28.2-8,59.9-12.3,91.6c-0.9,6.6-3.9,11.5-11.4,11.4s-10.4-5.1-11.2-11.6
		c-4.2-31.7-8.8-63.4-12.1-95.2c-1.7-16.8,7.1-24.6,24-24.4C262.2,155.8,269.5,163.6,268.9,183.8z"/>
	<path class="st1" d="M265,315c-0.3,10.7-9.2,19.4-19.8,19.3c-11-0.1-19.9-9.6-19.5-20.6c0.5-10.8,9.2-18.7,20.3-18.4
		C257,295.5,265.3,304.2,265,315z"/>
</g>
</svg>
