<?xml version="1.0" encoding="utf-8"?>
<!-- Generator: Adobe Illustrator 25.0.0, SVG Export Plug-In . SVG Version: 6.00 Build 0)  -->
<svg version="1.1" id="Layer_1" xmlns="http://www.w3.org/2000/svg" xmlns:xlink="http://www.w3.org/1999/xlink" x="0px" y="0px"
	 viewBox="0 0 490.7 490.7" style="enable-background:new 0 0 490.7 490.7;" xml:space="preserve">
<style type="text/css">
	.st0{fill:#FFFFFF;}
	.st1{fill:#ED1C24;}
	.st2{fill:#A97C50;}
	.st3{fill:#27AAE1;}
	.st4{fill:#E2E2E2;}
	.st5{fill:#B4B4B4;}
	.st6{fill:#C3C3C3;}
	.st7{fill:#C2C2C2;}
	.st8{fill:#B5B5B5;}
	.st9{fill:#CACACA;}
	.st10{fill:#C8C8C8;}
	.st11{fill:#7C7C7C;}
	.st12{fill:#7F7F7F;}
	.st13{fill:#7D7D7D;}
	.st14{fill:#424242;}
	.st15{fill:#7E7E7E;}
	.st16{fill:#414141;}
	.st17{fill:#808080;}
	.st18{fill:#434343;}
	.st19{fill:#A3DDF4;}
	.st20{fill:#D4D4D4;}
	.st21{fill:#B8B8B8;}
	.st22{fill:#787878;}
	.st23{fill:#A2A2A2;}
	.st24{fill:#C1C1C1;}
	.st25{fill:#5A5A5A;}
	.st26{fill:#494949;}
	.st27{fill:#BEBEBE;}
	.st28{fill:#767676;}
	.st29{fill:#4B4B4B;}
	.st30{fill:#4C4C4C;}
	.st31{fill:#BE1E2D;}
	.st32{fill:#A7A7A7;}
	.st33{fill:#C0C0C0;}
	.st34{fill:#4E4E4E;}
	.st35{fill:#A4A4A4;}
	.st36{fill:#ACACAC;}
	.st37{fill:#505050;}
	.st38{fill:#555555;}
	.st39{fill:#585858;}
	.st40{fill:#6B6B6B;}
	.st41{fill:#C7C7C7;}
</style>
<g>
	<path d="M111,364.1c-6.6-3.1-12.3-7-16.6-12.8c-1-1.3-2.3-1.2-3.7-1.2c-7-0.3-14.1-0.4-21.1-0.9c-13.1-0.9-19.7-6.6-22.6-19.4
		c-1-4.6-2.3-9.4-1.4-13.9c3-16.4,1.6-33.2,5.7-49.5c2.3-8.9,7.1-14.7,15.7-17.5c7.4-2.4,14.7-5,22.1-7.5c5-1.7,9.1-4.6,12.7-8.6
		c12.9-14.3,27.5-26.3,46.1-32.6c13.3-4.5,26.9-6.1,40.9-5.6c17.3,0.5,34.5,2.1,51.5,5.8c31.6,6.9,58.8,22.1,82.1,44.3
		c8.1,7.7,16.6,14.9,27.9,17.5c5.9,1.4,11.7,2.9,17.6,4.6c12.2,3.6,24.2,7.8,34.9,15c7.8,5.3,11.6,12.5,11.8,21.8
		c0.3,13.3-1.4,26.4-5.2,39.1c-0.5,1.7-1,3.3-1.7,4.9c-3.3,8.6-6.9,11.2-16.2,11.2c-8.9,0-17.8-0.1-26.7-0.2c-1.6,0-3,0.1-4.3,1.5
		c-11,11.7-24.1,14.6-39.2,9.2c-0.5-0.2-0.9-0.3-1.9-0.7c0.7,4.5,1.8,8.5,3.3,12.5c0.4,1.2,1.7,1.3,2.9,1.3c11.7,0,23.5,0,35.2,0
		c2,0,2.9-1.1,3.4-2.8c0.9-3.1,1.8-6.2,2.6-9.3c0.6-2.5,1.9-3.7,4.7-3.7c7.5,0.1,69.2,0,76.7,0.1c4.7,0,7,2.3,7,7.1
		c0.1,6.9,0.1,13.8,0,20.8c-0.1,4.5-2.3,6.8-6.8,7.1c-1,0.1-2,0-3,0c-108.9,0-309.3,0-418.3,0c-1.2,0-2.5,0.1-3.7,0
		c-4.1-0.3-6.4-2.5-6.4-6.7c-0.1-8.2-0.1-16.3,0-24.5c0.1-4.5,2.5-6.6,7.6-6.6c10.6-0.1,58.7,0,69.3,0
		C99.6,364.1,105.3,364.1,111,364.1z M302.5,245.8c-0.8-1.5-1.8-2-2.6-2.7c-15.3-12.4-32.6-20.8-51.1-27.2
		c-19.4-6.7-39.6-7.9-59.9-8.1c-14.8-0.2-27.9,4.4-39.3,13.9c-7.9,6.5-14.2,14.4-19.1,23.4c-1.5,2.8-1.4,3,1.8,3.2
		c2.2,0.1,4.4,0.2,6.7,0.3c19.4,1.1,38.7,2.3,58.1,3.5c14.9,0.9,29.8,1.8,44.8,2.7c13.7,0.8,27.4,1.6,41.1,2.4
		c1.8,0.1,2.9,0,3.5-2.2c1.6-5.7,6-8.1,11.6-8.9C299.2,245.8,300.7,245.9,302.5,245.8z M132.4,363.8c60.2,0,119.7,0,179.6,0
		c-2.5-2.6-4.7-4.8-6.2-7.5c-1.1-1.9-2.6-2.4-4.6-2.4c-8.3-0.1-16.5-0.4-24.8-0.7c-19.9-0.8-39.8-1.2-59.6-1.9
		c-8.5-0.3-17-0.7-25.5-1c-12.5-0.4-24.9-0.7-37.4-1.1c-1.3,0-2.5,0-3.3,1.2C146,356.8,140,360.9,132.4,363.8z M334.5,358.8
		c11.8,0,21.5-9.5,21.7-21.3c0.2-11.7-9.6-21.5-21.3-21.6c-11.9-0.1-21.7,9.3-21.9,21C312.8,348.9,322.6,358.8,334.5,358.8z
		 M122.2,309.1c-12,0-21.6,9.4-21.5,21.2c0,12.2,9.5,21.7,21.5,21.7c11.8,0,21.4-9.6,21.4-21.5C143.5,318.6,134.1,309.1,122.2,309.1
		z"/>
	<path class="st1" d="M336,219.4c-9.4,0-18.8,0-28.2,0c-2,0-3.8-0.4-5.6-1.6c-21.8-14.9-46-23.5-71.9-27.9
		c-10.7-1.8-21.5-2.8-32.4-3.3c-4.1-0.2-4.3-0.6-3.1-4.4c0.9-2.7,2.1-5.3,3.6-7.7c23.3-37.7,46.6-75.5,69.9-113.2
		c12.2-19.8,38.1-20,50.4-0.2c23.5,37.9,47,75.8,70.3,113.8c12.3,20-0.9,44-24.6,44.5C355,219.6,345.5,219.4,336,219.4
		C336,219.4,336,219.4,336,219.4z M308.3,106.5c0-0.8,0-1.8,0-2.8c-0.2-8.4-7-15-15-14.6c-8.5,0.4-15,7.7-14.3,16.2
		c1.1,14,2.3,28.1,3.4,42.1c0.5,6.3,5.4,10.7,11.5,10.8c5.5,0,10.6-4.5,11.1-10.5C306.2,134.1,307.2,120.4,308.3,106.5z
		 M293.9,170.4c-8.3-0.1-14.2,5.2-14.4,12.8c-0.2,7.5,6.1,13.4,14.2,13.4c8.1,0,13.9-5.6,13.9-13.2
		C307.6,175.8,302,170.5,293.9,170.4z"/>
	<path class="st1" d="M439.1,320.9c0.3,0.7,0.8,1.6,1.1,2.7c0.7,2.5-0.6,4.4-4,5.8c-5.8,2.5-11.6,4.8-17.4,7.3
		c-2,0.9-2.5,0.6-1.9-1.2c1.9-5.2,3.6-10.4,5.6-15.6c1-2.8,3.1-4.1,6.2-4.1C432.8,315.9,436.8,317.7,439.1,320.9z"/>
	<path class="st1" d="M425.8,381.3c-0.7,0.3-1.6,0.8-2.7,1.1c-2.5,0.7-4.4-0.6-5.8-4c-2.5-5.8-4.8-11.6-7.3-17.4
		c-0.9-2-0.6-2.5,1.2-1.9c5.2,1.9,10.4,3.6,15.6,5.6c2.8,1,4.1,3.1,4.1,6.2C430.8,375.1,429,379.1,425.8,381.3z"/>
	<path class="st1" d="M441.9,346.6c1,4.6,0.2,9.4-3.1,13.7c-2.1,2.7-4,2.9-6.6,0.8c-4-3.3-7.8-6.7-11.8-10.1
		c-1.6-1.4-1.6-2.3,0.4-3.1c5-2.1,9.9-4.3,15-6.3C438.7,340.5,440.7,342.1,441.9,346.6z"/>
</g>
</svg>
