<?xml version="1.0" encoding="utf-8"?>
<!-- Generator: Adobe Illustrator 25.0.0, SVG Export Plug-In . SVG Version: 6.00 Build 0)  -->
<svg version="1.1" id="Layer_1" xmlns="http://www.w3.org/2000/svg" xmlns:xlink="http://www.w3.org/1999/xlink" x="0px" y="0px"
	 viewBox="0 0 490.7 490.7" style="enable-background:new 0 0 490.7 490.7;" xml:space="preserve">
<style type="text/css">
	.st0{fill:#FFFFFF;}
	.st1{fill:#ED1C24;}
	.st2{fill:#A97C50;}
	.st3{fill:#27AAE1;}
	.st4{fill:#E2E2E2;}
	.st5{fill:#B4B4B4;}
	.st6{fill:#C3C3C3;}
	.st7{fill:#C2C2C2;}
	.st8{fill:#B5B5B5;}
	.st9{fill:#CACACA;}
	.st10{fill:#C8C8C8;}
	.st11{fill:#7C7C7C;}
	.st12{fill:#7F7F7F;}
	.st13{fill:#7D7D7D;}
	.st14{fill:#424242;}
	.st15{fill:#7E7E7E;}
	.st16{fill:#414141;}
	.st17{fill:#808080;}
	.st18{fill:#434343;}
	.st19{fill:#A3DDF4;}
	.st20{fill:#D4D4D4;}
	.st21{fill:#B8B8B8;}
	.st22{fill:#787878;}
	.st23{fill:#A2A2A2;}
	.st24{fill:#C1C1C1;}
	.st25{fill:#5A5A5A;}
	.st26{fill:#494949;}
	.st27{fill:#BEBEBE;}
	.st28{fill:#767676;}
	.st29{fill:#4B4B4B;}
	.st30{fill:#4C4C4C;}
	.st31{fill:#BE1E2D;}
	.st32{fill:#A7A7A7;}
	.st33{fill:#C0C0C0;}
	.st34{fill:#4E4E4E;}
	.st35{fill:#A4A4A4;}
	.st36{fill:#ACACAC;}
	.st37{fill:#505050;}
	.st38{fill:#555555;}
	.st39{fill:#585858;}
	.st40{fill:#6B6B6B;}
	.st41{fill:#C7C7C7;}
</style>
<g>
	<path d="M51.7,424.5c0-17.1,0-34.2,0-51.7c1.9,0.2,3.8,0.3,5.6,0.6c9.4,1.9,18.4-0.9,27.5-1.9c14.3-1.6,27.7,2.7,41.4,5.3
		c14.4,2.8,26.2-2.3,33.9-15.2c-4.1-27.9-8.2-56.1-12.4-84.5c-1.6,2-0.5,4.7-2.5,6.4c-1.2-1.4-0.2-2.7,0.1-3.9
		c1.2-5.8-1.4-11.2-1.8-16.9c-0.7-8.6,0.4-17.4-1.7-25.9c-3.3-13.8-7.9-27.3-10.4-41.3c-1.8-9.7-2.6-19.4-3-29.2
		c-0.4-8.3-4.1-16.3-4-24.7c0.1-4.4-1.6-8-3.8-11.7c-3.5-5.9-6.6-12-10.1-18.4c-4.5-0.7-9.2-1.5-14.1-2.3c-0.3-1.2-0.5-2.3-0.8-3.7
		c0.8-0.3,1.5-0.5,2.1-0.7c0.6-2.4-1.3-3.8-1.8-5.8c1.3-1.7,2.4-3.3,3.7-4.9c1.3-0.6,2.2,0.4,3.8,0.9c-2.1-5.3-4-10.2-5.9-15.1
		c-1.6-0.4-3-0.7-4.5-1.1c-0.3-1-0.6-2.1-1-3.3c-1.4-0.5-2.9-0.9-4.7-1.5c-0.7-3.1,0.6-5.6,2.4-8c2.2,0.7,4,1.3,6.2,1.9
		c0.9,2.3-0.3,5.4,2.1,7.7c15.7,2.6,31.7,5.2,47.8,7.8c0.1-0.2,0.1-0.5,0.2-0.7c-1-0.4-2-0.7-3.1-1.1c-0.2-2.1-0.4-4.2-0.7-6.6
		c2.4-1.9,5.2-1.4,8.1-1.1c0.3,2.3,0.6,4.3,0.9,6.7c-0.9,0.6-1.8,1.2-2.7,1.8c-0.1,2.2,1.8,1.4,3.1,2.3c-0.4,0.9-0.9,1.9-1.5,3.1
		c-8.2-1.3-16.3-2.5-25-3.8c1.5,9,2.9,17.6,4.3,26.5c6.3,0.4,12.3,2.8,18.7,1.2c-0.9-0.3-1.8-0.6-2.7-0.9c-0.4-2.1-0.8-4.2-1.3-6.4
		c2.4-1.7,5-2.3,8-1.8c0.5,2.2,1,4.3,1.5,6.4c-0.7,0.7-1.5,1.4-2.2,2.1c0.5,1.8,1.2,3.3,2,4.3c4.6,8.2,9.1,16.4,13.9,24.5
		c14.2,23.9,31.7,44.2,58,55.4c6.5-3.4,10.2-9.1,13.1-15.3c6.9-14.4,9-30,11.7-45.5c0.3-1.8,0.5-3.6,0.8-5.5
		c-0.9-0.5-1.8-0.9-2.8-1.5c0-2.1,0-4.2,0-6.7c2.5-1.1,5.2-1.5,8.2-0.1c-0.5,2.7,0.7,5.3-0.6,8.6c16.8-3.8,33.1-7.4,49.7-11.1
		c-1.9-1.8-3.9,0.5-5.5-1.8c-0.3-1.4-0.8-3.4-1.4-5.7c2.3-2,5-2.5,7.9-2.1c0.6,2.1,1.1,4,1.7,6.2c-0.3,0.6-0.8,1.4-1.2,2
		c1.1,1.6,2.4-0.1,3.7,0.7c-0.1,1-0.3,2.1-0.4,3.3c-8,1.9-16,3.7-24.5,5.7c4.7,7.8,9.2,15.2,14,23c4.8-2.3,11.7,0,13.7-7.7
		c-0.5-0.5-1-1.1-1.7-1.8c1.2-2.9,3.4-4.6,6.1-5.6c1.5,1.6,2.8,3.1,4.4,4.8c-0.2,0.8-0.4,1.8-0.6,2.7c0.5,1.8,1.7,2.3,2.5,2.2
		c3.9,10.8,3.8,21.7,4.5,32.6c0.2,4.3,1,8.6,0.7,12.9c-0.5,7.4,2.6,13.2,6.3,19.1c9.5,15.1,18.1,30.8,28.1,45.6
		c6.5,9.7,14.3,18.5,20.8,28.3c9.1,13.9,14.3,29.6,22.8,43.7c6.5,10.8,13.1,21.5,19.8,32.6c3.9-0.3,7.8-0.5,11.8-0.8
		c0,2.8,0,5.6,0,8.4c-0.3,0.1-0.6,0.2-1.1,0.4c0.5,0.4,0.8,0.7,1.1,0.9c0,0.4,0,0.9,0,1.3c-2.3-0.1-3.7-3.4-6.8-1.7
		c2.4,3.5,4.6,6.8,6.8,10.1c0,15.5,0,31,0,46.6C309.9,424.5,180.8,424.5,51.7,424.5z M316.2,353.2c0.1,0.4,0.2,0.9,0.3,1.3
		c0.7,0.3,1.4,0.7,2.1,1c4.7,4,9.3,8,16.1,7.4c-5.6-1.9-10.7-5-16-7.6c-0.5-0.9-1.2-1.4-2.3-0.8
		C316.4,354.1,316.3,353.7,316.2,353.2c-0.1,0-0.2,0-0.3,0c0.1-0.1,0.1-0.1,0.2-0.2C316.1,353,316.2,353.1,316.2,353.2z M371,266.4
		c0,0.1,0.1,0.1,0.1,0.2c0-0.1,0-0.1,0-0.2c0.3,0.9,0.6,1.7,0.9,2.6c1.1,1.7,2.3,3.3,3.4,5.1c6.1,9.8,12.2,19.7,18.3,29.5
		c0.4,0.8,0.8,1.7,1.2,2.5c0.2-0.1,0.4-0.2,0.5-0.3c-0.5-0.8-1-1.6-1.6-2.3c-5.6-12.1-12.5-23.5-20.5-34.2c-0.2-0.3-0.9-0.2-1.3-0.3
		C373,267.6,371.4,267.3,371,266.4z M131.7,165.4C131.6,165.7,131.4,165.9,131.7,165.4C131.6,166,131.6,165.7,131.7,165.4
		c-0.3-0.8-0.6-1.7-1.4-4.1C130.6,164,129.6,165.4,131.7,165.4z M105,106.7l0.1-0.1L105,106.7c-0.8-2.5-2.9-2.4-5.1-2.7
		C100.8,107,103.5,105.7,105,106.7z M136,152.1c4.6,20,4.8,39.3,12,57.4c3.3,8.2,4.1,16.9,2.3,25.7c-0.2,0.8,0,1.7,0.1,2.5
		c2.9,20.7,6.7,41.1,13.3,61c4,11.9,7.8,24.4,5.8,37c-2.2,14.4,2.4,27.6,3.6,40.9c32.7,0,65,0,97.3,0c3.2-11.1,6.2-21.5,9.2-31.9
		c-0.3-0.1-0.5-0.2-0.8-0.3c-0.5,1.1-1.1,2.1-1.6,3.2c-2.3,0-4.4,0-6.7,0c-0.9-2.8-1.6-5.5,0.2-8.3c2.2,0,4.2,0,6.5,0
		c0.4,0.9,0.9,2,1.4,2.9c2.6,0.8,1.8-2.2,3.3-2.8c0.9,0.7,1.7,1.3,2.6,2c-2.2,8.1-4.5,16-6.8,24.3c9.2-0.4,17.9-0.8,26.7-1.2
		c1.5-5.3,3-10.4,4.5-15.4c-2.6-1.9-5.1-1.1-7.8-1c-1-2.9-1.5-5.6-0.1-8.3c2.2-0.1,4.3-0.2,5.9-0.3c2,0.5,1.1,2.5,2.3,3.1
		c2.4,0.6,1.5-2.3,3.1-2.7c0.8,0.6,1.6,1.2,2.5,1.9c-0.7,2.5-1.3,4.9-1.9,7.4c7.1,5,14.2,9.7,22.4,12.1c6.4,1.9,13.2,2.8,19.4,0.5
		c13.8-5.2,28.1-7.9,42.6-10.2c4.6-0.7,7.5-3.3,8.8-7.9c-18.5-31.7-37-63.3-55.3-94.9c-2.2-3.7-4.7-6.8-8.1-9.5
		c-5.4-4.3-9.4-9.9-10.6-16.5c-1.7-9.1-6.1-16.6-10.7-24.3c-6.5-11-12.9-22.1-19.5-33.3c-8.3,12.2-16.8,23.8-29.2,31.4
		c-1.3,7.5,1.9,13.5,5.1,19.5c3.1,5.9,4,13,1.7,16.5c2.7-13.1-10.1-21.9-8.5-35c-15.6,7.7-30.8,5.3-45.7-0.2
		c-5.8,2.5-11.7,2.8-17.6,1.8c-17.4-2.9-31.9-11.9-45.7-22.2C152.7,169.9,144.5,161.9,136,152.1z M252.2,131.4
		c-1.9,12-3.7,23.6-6.9,34.9c-3.3,11.4-7.5,22.4-17.9,30c15,5.5,29.4,7.2,43.9-0.8c1-11.8,7.7-23.2,1.5-35.4
		c-1.6,0.2-2.9,0.5-4.2,0.7c-1.9-3.3-5.4-4.1-8.2-6.4c0.5-2.9,1.8-5.2,4.4-6.9c2,1.2,3.7,2.3,5.5,3.4c0,1.9-0.3,3.8,2.2,4.9
		c6.7-1.5,13.7-3.1,21-4.7c-4.6-7.8-8.9-15.3-13.4-22.9c-8.8,2-17.4,4-25.9,6C253.6,133.2,253.1,132.5,252.2,131.4z M146.8,117.2
		c-4.9,7.6-9.1,15.4-11.6,23.9c-1,3.1-0.4,6.8,1.8,9.4c16,19.1,34.9,34.5,58.4,43.7c8.8,3.4,17.8,5.5,27.8,2.3
		c-34.6-16.5-53.5-46.5-70.1-78.4C150.8,117.8,148.8,117.5,146.8,117.2z M305.4,375.5c40.3-0.5,80-0.7,120.2,1.7
		c-2.1-3.5-3.8-6.5-5.6-9.6c-37.9,0.9-75.5,1.9-113.3,2.8C306.3,372.1,305.9,373.5,305.4,375.5z M300.9,163.5c-1.9-3.1-3.5-6-5.3-9
		c-7.2,1.7-14.1,3.3-21.3,5c5.6,11.8,0.1,23-1.4,34.9C285.1,186.3,293.1,175.2,300.9,163.5z M323.7,148c-4.8,1.1-9,2.1-13.2,3
		c-1.7,2.9-3.3,5.5-5,8.2c7.5,12.3,14.8,24.4,22.2,36.4C326.4,179.8,328.6,163.8,323.7,148z M99.2,80.1c3.8,9.1,7.2,17.6,10.6,25.9
		c4.7,0.9,9,1.5,13.5,3.9c-1.4-9.4-2.6-18-3.9-26.7C112.7,82.2,106.3,81.2,99.2,80.1z M414.9,359.8c-0.2-3-2.4-3.2-4.3-3.7
		c-16.6-4.2-32,1.4-47.6,5.9C380.3,361.2,397.6,360.5,414.9,359.8z M130.1,114.5c1.3,8.1,2.6,15.7,4,24.4
		c3.2-8.3,6.8-15.1,10.9-22.1C139.9,116.1,135.2,115.3,130.1,114.5z M302.5,371.1c-9,0-17.6,0-26.3,0c-0.5,1.8-0.9,3.3-1.3,4.6
		c8.9,0,17.5,0,26.2,0C301.7,373.9,302.1,372.4,302.5,371.1z M167.3,340.1c1.8-12.7-4-45.5-8.6-52.1
		C161.5,305.4,164.4,322.7,167.3,340.1z M123.4,132c0.9-6.3,2.2-12.4,0.1-18.5c-3.5-0.5-6.8-1-11-1.6
		C116.4,119.1,119.9,125.5,123.4,132z M139.3,220.3c-3.1-16.8-3.6-33.9-8.8-50.2C130.5,187.4,134.5,203.9,139.3,220.3z M74.7,375.3
		c14.5,0.6,29.1,1.3,43.6,1.9C103.9,372.8,89.4,371,74.7,375.3z M326.3,363.9c-5-3.9-9.5-7.9-14.4-11.7c-1.2,4.3-2.2,8.1-3.2,11.7
		C314.7,363.9,320.5,363.9,326.3,363.9z M162.5,377.3c-0.7-4.4-1.3-8.4-2-13.2c-4.1,5.9-8.9,9.9-15.5,13.2
		C151.4,377.3,156.7,377.3,162.5,377.3z M399.5,352.7c4.7,0.7,8.6,1.3,13,2c-1.9-3.2-3.5-6-5.4-9.1
		C405.5,349,403.2,351.1,399.5,352.7z M332.9,218.3c1.2,8,4.5,14.9,12.2,20.8C340.5,231.4,336.7,224.8,332.9,218.3z M129.1,158.6
		c0.8-6.5,0-12.9-2.6-19C125.9,146.2,126.9,152.4,129.1,158.6z M145.5,208c1.2,7,2.3,14,3.5,20.9C150.1,221.6,148.5,214.7,145.5,208
		z M308.3,151.6c-2.5,0.6-4.4,1-6.4,1.5c1,1.6,1.7,2.9,2.7,4.5C305.9,155.6,306.9,153.9,308.3,151.6z M108,105.3
		c-0.9-2-1.5-3.4-2.4-5.3c-0.9,1.3-1.3,2.1-1.8,2.8C104.6,104.2,105.9,104.7,108,105.3z M319.3,145.1c-1.7-0.1-3.3,0.7-4.6-0.9
		c-0.5,0.8-1.3,1.2-0.6,2.3C315.8,146,317.5,145.6,319.3,145.1z M146.3,267c-0.5-3.5-0.8-5.5-1.3-8.6
		C144.6,261.7,145,263.7,146.3,267z M126.5,131.8c-0.4,1.6-1.1,3.3,0.8,5.7C126.9,134.9,126.7,133.3,126.5,131.8z M252.2,130
		c0.9,0.1,1.6,0.5,1.7-0.8C253.3,128.7,252.8,128.7,252.2,130z M309.9,345.2c-0.8,0-1.4,0.3-0.4,1
		C309.6,345.8,309.8,345.5,309.9,345.2z"/>
</g>
</svg>
