<?xml version="1.0" encoding="utf-8"?>
<!-- Generator: Adobe Illustrator 25.0.0, SVG Export Plug-In . SVG Version: 6.00 Build 0)  -->
<svg version="1.1" id="Layer_1" xmlns="http://www.w3.org/2000/svg" xmlns:xlink="http://www.w3.org/1999/xlink" x="0px" y="0px"
	 viewBox="0 0 490.7 490.7" style="enable-background:new 0 0 490.7 490.7;" xml:space="preserve">
<style type="text/css">
	.st0{fill:#FFFFFF;}
	.st1{fill:#ED1C24;}
</style>
<g>
	<path class="st0" d="M245.4,79.3c44.4,0,88.8,0,133.1,0c16.3,0,27.6,11.3,27.6,27.6c0,49.3,0,98.5,0,147.8c0,12.4-6.6,21.8-18.4,26
		c-1.8,0.6-2.3,1.5-2.4,3.3c-0.1,7.7-0.2,7.7,7.7,7.7c3.4,0,6.9,0.1,10.3,0c1.9,0,2.8,0.6,2.8,2.6c0,12.2-0.1,24.5,0,36.7
		c0,2.2-1,2.8-3,2.8c-5,0-9.9,0.1-14.9,0c-2.1,0-2.9,0.7-2.8,2.9c0.2,8-0.9,6.6,6.6,6.7c3.8,0.1,7.7,0.1,11.5,0
		c1.8,0,2.6,0.7,2.6,2.5c0,12.3,0,24.7,0,37c0,2-0.9,2.7-2.8,2.7c-4.9-0.1-9.8,0.1-14.6-0.1c-2.5-0.1-3.4,0.7-3.3,3.2
		c0.2,6.4,0,12.8,0.1,19.2c0.1,2.6-0.9,3.5-3.5,3.5c-8.4-0.1-16.8-0.1-25.2,0c-2.3,0-3.2-0.8-3.2-3.2c0.1-6.4-0.1-12.8,0.1-19.2
		c0.1-2.8-0.9-3.6-3.6-3.6c-35.3,0.1-70.6,0-105.9,0c-34.4,0-68.9,0-103.3,0c-3.9,0-3.9,0-3.9,4c0,6.1-0.1,12.2,0,18.4
		c0,2.5-0.6,3.6-3.4,3.6c-8.4-0.1-16.8-0.1-25.2,0c-2.5,0-3.4-0.9-3.3-3.4c0.1-6.2,0-12.4,0-18.7c0-3.9,0-3.9-4-3.9
		c-4.6,0-9.2-0.1-13.8,0c-2.1,0-2.9-0.7-2.9-2.8c0.1-12.1,0.1-24.3,0-36.4c0-2.3,0.9-3,3.1-3c5,0.1,9.9,0,14.9,0
		c1.9,0,2.8-0.6,2.7-2.6c-0.2-8.2,0.9-6.8-6.7-6.9c-3.6-0.1-7.3-0.1-10.9,0c-2.1,0-3.1-0.7-3.1-3c0.1-12.1,0.1-24.1,0-36.2
		c0-2.5,1-3.1,3.2-3.1c5,0.1,9.9,0,14.9,0.1c1.8,0,2.7-0.6,2.6-2.5c0-0.2,0-0.4,0-0.6c0.7-4.7-0.5-7.4-5.6-9.5
		c-9.8-4.1-15-12.5-15-23.1c-0.2-50.1-0.1-100.2,0-150.3c0-14.8,11.8-26.2,26.6-26.3C155.9,79.3,200.7,79.3,245.4,79.3z M245.6,90.5
		c-44.6,0-89.1,0-133.7,0c-10.1,0-16.2,6-16.2,16c0,49.5,0,99.1,0,148.6c0,1.5,0,3,0.4,4.5c2.1,7.2,7.9,11.3,16.3,11.3
		c52.9,0,105.8,0,158.7,0c35.9,0,71.7,0,107.6,0c10.5,0,16.5-7.8,16.4-16.3c-0.2-49.4-0.1-98.7-0.1-148.1c0-1.5,0-3.1-0.4-4.6
		c-1.6-7.2-7.5-11.6-15.6-11.6C334.5,90.4,290.1,90.5,245.6,90.5z M245.2,291.6c34.7,0,69.4,0,104.1,0c0.9,0,1.7,0,2.6,0
		c0.6,0,1.3-0.1,1.5-0.7c0.6-2.6,0.8-5.4,0-7.9c-0.6-1.8-2.9-0.9-4.4-0.9c-68.8,0-137.7,0-206.5,0c-6.1,0-5.3-0.3-5.4,5.5
		c0,4.1,0,4.1,4,4.1C175.8,291.6,210.5,291.6,245.2,291.6z M245,343.3c34,0,68.1,0,102.1,0c7.5,0,6.4,1.3,6.5-6.8
		c0-1.9-0.6-2.9-2.6-2.7c-0.8,0.1-1.5,0-2.3,0c-68.7,0-137.5,0-206.2,0c-6.2,0-5.5-0.5-5.5,5.6c0,4,0,4,3.9,4
		C175.6,343.3,210.3,343.3,245,343.3z M342.7,354.5c5.5,6.6,10.4,12.5,15.3,18.5c0.8,1,1.7,1.4,3,1.4c4,0,8,0,12.1,0
		c0.6,0,1.5,0.3,1.8-0.4c0.4-0.7-0.4-1.2-0.8-1.7c-4.4-5.4-8.9-10.7-13.4-16.1c-0.7-0.8-1.4-1.6-2.6-1.6
		C353.2,354.5,348.3,354.5,342.7,354.5z M148,374.3c-5.4-6.4-10.3-12.3-15.1-18.2c-0.9-1.1-2-1.7-3.4-1.7c-4,0-8,0-12,0
		c-0.6,0-1.5-0.3-1.7,0.6c-0.1,0.4,0.4,1,0.8,1.4c4.5,5.4,9,10.9,13.5,16.3c0.6,0.7,1.2,1.5,2.3,1.5
		C137.4,374.3,142.4,374.3,148,374.3z M319,322.6c-5.7-6.8-10.8-12.9-16-19.1c-0.7-0.8-1.7-0.8-2.7-0.8c-3.9,0-7.8,0-11.7,0
		c-0.6,0-1.5-0.2-1.8,0.5c-0.4,0.8,0.4,1.2,0.8,1.7c4.4,5.4,8.9,10.7,13.3,16.1c0.7,0.8,1.4,1.6,2.6,1.6
		C308.3,322.6,313.2,322.6,319,322.6z M375.9,322.6c-5.6-6.7-10.8-12.8-15.9-19c-0.7-0.8-1.7-0.8-2.6-0.8c-3.9,0-7.8,0-11.7,0
		c-0.7,0-1.7-0.3-2,0.6c-0.2,0.7,0.5,1.2,0.9,1.7c4.5,5.3,8.9,10.7,13.4,16c0.6,0.7,1.2,1.6,2.3,1.6
		C365.2,322.6,370.2,322.6,375.9,322.6z M285.7,354.5c5.6,6.7,10.7,12.8,15.8,18.9c0.6,0.7,1.4,0.9,2.3,0.9c4.2,0,8.4,0,12.6,0
		c0.5,0,1.3,0.2,1.5-0.5c0.3-0.6-0.3-1-0.7-1.5c-4.6-5.5-9.2-11-13.8-16.5c-0.6-0.7-1.1-1.4-2.1-1.4
		C296.5,354.5,291.4,354.5,285.7,354.5z M228.8,302.8c5.6,6.7,10.6,12.7,15.6,18.7c0.7,0.9,1.7,1.2,2.8,1.2c4.1,0,8.2,0,12.3,0
		c0.5,0,1.3,0.2,1.6-0.3c0.4-0.8-0.4-1.2-0.7-1.7c-4.5-5.4-9-10.9-13.6-16.3c-0.6-0.7-1.3-1.5-2.3-1.5
		C239.5,302.8,234.6,302.8,228.8,302.8z M261.9,374.3c-5.1-6.1-9.7-11.4-14-17c-1.7-2.2-3.6-3.2-6.3-2.9c-2.2,0.2-4.4,0-6.6,0.1
		c-1.8,0.1-3.7-0.3-5.9,0.4c4.5,5.5,8.9,10.7,13.2,15.9c0.7,0.9,1.5,1.7,2.2,2.6c0.5,0.5,1,0.9,1.7,0.9
		C251.2,374.3,256.1,374.3,261.9,374.3z M204.6,374.3c-0.3-0.7-0.5-1-0.7-1.3c-4.8-5.7-9.5-11.4-14.3-17.2c-0.9-1.1-2-1.4-3.3-1.4
		c-3.9,0-7.8,0-11.7,0c-0.6,0-1.5-0.3-1.8,0.4c-0.3,0.7,0.4,1.2,0.8,1.7c4.5,5.4,9,10.9,13.6,16.3c0.6,0.8,1.3,1.4,2.4,1.4
		C194.4,374.3,199.3,374.3,204.6,374.3z M205,322.6c-3.1-3.7-5.6-6.9-8.3-10c-2.8-3.2-4.8-7.7-8.6-9.4c-3.8-1.7-8.5-0.3-12.8-0.5
		c-0.3,0-0.6,0-0.9,0c-0.6,0.1-1.5-0.3-1.7,0.5c-0.1,0.4,0.4,1,0.7,1.4c4.6,5.6,9.3,11.1,13.9,16.7c0.7,0.8,1.4,1.2,2.5,1.2
		C194.7,322.6,199.4,322.6,205,322.6z M148.1,322.6c-3.1-3.7-5.7-6.8-8.3-9.9c-2.8-3.2-4.8-7.7-8.6-9.4c-3.8-1.7-8.5-0.4-12.8-0.5
		c-0.2,0-0.4,0-0.6,0c-0.7,0.1-1.7-0.4-2,0.6c-0.2,0.7,0.5,1.2,0.9,1.7c4.5,5.4,9.1,10.8,13.6,16.3c0.7,0.9,1.5,1.4,2.7,1.4
		C137.8,322.6,142.6,322.6,148.1,322.6z M117,322.6c-3.1-3.7-5.7-6.9-8.4-10.1c-2.4-2.9-4.8-5.7-7.2-8.6c-1.2-1.5-2.9-1.3-4.5-1.1
		c-1.3,0.2-1.3,1.2-1.3,2.2c0,5.2,0,10.3,0,15.5c0,1.2,0.3,2.1,1.7,2.1C103.7,322.6,110.1,322.6,117,322.6z M106.1,374.3
		c2.9,0,5.7,0,8.6,0c1.3,0,2-0.4,0.9-1.6c-4.7-5.7-9.5-11.4-14.3-17.1c-1.2-1.5-3-1.3-4.5-0.9c-1.7,0.4-1.1,2-1.2,3.1
		c-0.1,4.5,0.1,9-0.1,13.4c-0.1,2.3,0.6,3.3,3.1,3.2C101.2,374.2,103.6,374.3,106.1,374.3z M384.5,354.5c-2.9,0-5.7,0-8.6,0
		c-0.9,0-2.1,0.1-1,1.4c4.9,6,9.8,11.9,14.9,17.7c1.1,1.3,2.9,0.9,4.3,0.4c1.3-0.4,0.9-1.8,0.9-2.8c0-4.8,0-9.5,0-14.3
		c0-1.8-0.7-2.6-2.5-2.5C389.9,354.5,387.2,354.5,384.5,354.5z M384.4,302.7c-1.6,0-3.2-0.1-4.9,0c-1.6,0.1-4-0.9-4.7,0.6
		c-0.6,1.3,1.6,2.5,2.6,3.7c3.8,4.7,7.8,9.3,11.7,14.1c1.4,1.8,3.2,1.7,4.9,1.2c1.6-0.4,1-2.1,1-3.2c0.1-4.3-0.1-8.6,0.1-12.9
		c0.1-2.7-0.7-3.9-3.5-3.7C389.2,302.9,386.8,302.7,384.4,302.7z M316.8,354.5c4.1,4.9,7.7,9.3,11.3,13.7c5.4,6.6,5.4,6.6,14,6.1
		c0.6,0,1.5,0.3,1.8-0.5c0.3-0.7-0.5-1.2-0.9-1.7c-4.4-5.3-8.8-10.6-13.2-15.9c-0.7-0.8-1.3-1.8-2.5-1.8
		C324.1,354.5,320.8,354.5,316.8,354.5z M344.3,322.6c0-0.5,0-0.6-0.1-0.6c-3.6-4.4-7.3-8.8-10.9-13.2c-5.3-6.5-5.3-6.5-13.7-6
		c-0.6,0-1.5-0.2-1.8,0.5c-0.4,0.8,0.4,1.2,0.7,1.7c4.4,5.4,8.9,10.7,13.3,16c0.8,1,1.7,1.7,3.1,1.7
		C338,322.6,341.1,322.6,344.3,322.6z M203.3,302.8c0.5,0.8,0.6,1.2,0.8,1.5c4.8,5.7,9.5,11.5,14.3,17.2c0.5,0.6,1,1.2,1.9,1.2
		c3.3,0,6.6,0,10.2,0c-0.4-0.8-0.5-1.1-0.8-1.4c-4.8-5.7-9.5-11.4-14.3-17.2c-0.7-0.8-1.4-1.2-2.5-1.2
		C210,302.8,206.9,302.8,203.3,302.8z M260.2,354.5c0.4,0.7,0.5,1,0.7,1.2c3.5,4.2,7.4,8.1,10.3,12.6c3.5,5.3,8,6.9,13.8,5.9
		c0.1,0,0.2,0,0.3,0c0.6-0.1,1.5,0.3,1.7-0.6c0.1-0.4-0.4-1-0.8-1.4c-4.5-5.4-9.1-10.8-13.6-16.3c-0.7-0.8-1.4-1.6-2.6-1.6
		C266.9,354.5,263.8,354.5,260.2,354.5z M287.9,322.6c-5.6-6.7-10.6-12.7-15.6-18.7c-0.4-0.5-0.9-1-1.6-1.1c-3.4,0-6.7,0-10.8,0
		c5.6,6.7,10.7,12.8,15.8,18.9c0.4,0.5,1,0.9,1.7,0.9C280.7,322.6,283.9,322.6,287.9,322.6z M203.6,354.5c0.2,0.6,0.2,0.9,0.3,1.1
		c4.9,5.9,9.7,11.8,14.6,17.6c0.3,0.4,0.7,0.8,1.1,0.8c3.5,0.1,7,0,11.1,0c-5.4-6.4-10.3-12.4-15.3-18.3c-0.6-0.7-1.2-1.3-2.1-1.3
		C210.2,354.5,207,354.5,203.6,354.5z M173.9,374.3c-4-4.9-7.7-9.2-11.3-13.6c-5.2-6.3-5.2-6.3-13.3-6.2c-0.2,0-0.4,0-0.6,0
		c-0.6,0.1-1.5-0.3-1.8,0.5c-0.3,0.7,0.4,1.2,0.8,1.7c4.5,5.4,8.9,10.7,13.4,16.1c0.6,0.7,1.2,1.6,2.3,1.6
		C166.6,374.3,169.9,374.3,173.9,374.3z M173.9,322.6c-1.3-1.6-2.1-2.7-3-3.7c-2.8-3.3-5.6-6.6-8.3-9.9c-5.3-6.5-5.3-6.5-13.6-6.3
		c-0.7,0-1.7-0.3-2.1,0.5c-0.4,0.8,0.5,1.4,0.9,1.9c4.4,5.3,8.8,10.6,13.2,15.8c0.7,0.8,1.3,1.7,2.5,1.7
		C166.8,322.6,170.1,322.6,173.9,322.6z M116.3,392.7C116.4,392.7,116.4,392.7,116.3,392.7c0,1.7,0.1,3.4,0,5.1
		c-0.1,2.8,2,2.6,3.5,2.3c2-0.4,5.5,2,5.9-2.1c0.4-3.4,0-6.9,0.1-10.3c0-1.6-0.7-2.2-2.3-2.2c-8.8,0.1-7.1-1-7.3,6.6
		C116.3,392.3,116.3,392.5,116.3,392.7z M374.3,393c0-1.7,0-3.4,0-5.1c0-1.5-0.5-2.6-2.1-2.3c-2.4,0.4-5.3-1.5-7.3,1.3
		c-0.1,0.2-0.1,0.6-0.1,0.8c0,3.4,0,6.9,0,10.3c0,1.6,0.7,2.2,2.3,2.2c8.9,0,7,0.9,7.2-6.6C374.4,393.4,374.3,393.2,374.3,393z
		 M120.9,343.3c4.9,0,4.9,0,4.9-4.1c0-5.5,0-5.5-4.5-5.5c-5.1,0-5.1,0-5.1,4.6C116.3,343.3,116.3,343.3,120.9,343.3z M374.4,287
		c0-4.9,0-4.9-4.4-4.9c-5.1,0-5.1,0-5.1,4.6c0,5,0,5,4.6,5C374.4,291.6,374.4,291.6,374.4,287z M374.4,338.7c0-4.9,0-4.9-4.4-4.9
		c-5.1,0-5.1,0-5.1,4.5c0,5,0,5,4.6,5C374.4,343.3,374.4,343.3,374.4,338.7z M125.9,287c0-5,0-5-4.4-5c-5.1,0-5.1,0-5.1,4.6
		c0,5,0,5,4.6,5C125.9,291.6,125.9,291.6,125.9,287z"/>
	<path class="st0" d="M245.5,100c42.4,0,84.7,0,127.1,0c8.9,0,13,4.1,13,13c0,45.1,0,90.3,0,135.4c0,8.4-3.5,12.4-11.9,12.8
		c-6.6,0.4-13.2,0.2-19.8,0.1c-11.6-0.1-23.1,0.1-34.7-0.2c-8.9-0.2-17.7,0.2-26.6,0.2c-14.2,0-28.4-0.2-42.6-0.2
		c-11.5,0-23.1,0.1-34.6,0.2c-8,0-16-0.1-24.1-0.1c-24.6,0-49.1-0.3-73.7,0c-8.4,0.1-12.4-5.9-12.4-12.4c0.1-45.3,0.1-90.7,0.1-136
		c0-8.7,4.1-12.8,12.9-12.8C160.5,100,203,100,245.5,100z M245.1,250.3L245.1,250.3c5.5,0,11.1,0,16.6,0c36.2,0,72.5,0,108.7,0
		c4,0,4,0,4-3.9c0-43.7,0-87.4,0-131.1c0-4.1,0-4.1-4.1-4.1c-83.3,0-166.6,0-249.9,0c-4.1,0-4.1,0-4.1,4.1c0,43.6,0,87.2,0,130.8
		c0,4.2,0,4.2,4.2,4.2C162.1,250.3,203.6,250.3,245.1,250.3z"/>
	<path class="st1" d="M156.9,146.9c0-7.6,0.1-15.3,0-22.9c0-2.5,0.9-3.4,3.4-3.3c5.8,0.1,11.7,0,17.5,0.1c6.7,0.1,11.8,3.2,14.7,9.3
		c2.8,5.9,1.9,11.6-2.1,16.7c-1.3,1.7-1.5,2.9-0.6,4.8c2.9,6,4.5,12.4,4.2,19.1c-0.1,1.8-0.6,2.5-2.5,2.6c-8.1,0.5-8,0.5-8.8-7.4
		c-0.4-4.1-1.9-7.8-3.8-11.4c-0.8-1.6-2.1-2-3.8-1.9c-8.4,0.2-6.9-1.1-7,6.9c-0.1,3.6-0.1,7.3,0,10.9c0.1,2.3-0.9,3.1-3,3
		c-1.7-0.1-3.4-0.1-5.2,0c-2.3,0.2-3-1-3-3.1C157,162.4,156.9,154.6,156.9,146.9z M174.2,131.8c-7.1,0.1-6.1-1-6.2,6.2
		c0,0.3,0,0.6,0,0.9c-0.1,1.7,0.5,2.5,2.3,2.4c2.7-0.1,5.3,0.1,8-0.1c2.7-0.2,4.4-2,4.4-4.6c0-2.8-1.7-4.6-4.5-4.8
		C176.9,131.8,175.5,131.8,174.2,131.8z"/>
	<path class="st1" d="M250.3,153.8c0-5.1,0-10.1,0-15.2c0.1-9.5,7.6-17.2,17.4-17.9c8.9-0.6,17.6,6.3,19,15.3
		c0.9,5.5,0.3,11.1,0.4,16.6c0.1,5.8,0,11.7,0,17.5c0,2.3-0.9,3.2-3.2,3.2c-7.9,0.1-7.9,0.2-7.9-7.8c0-7.7,0-7.7-7.6-7.7
		c-7.2,0-7.2,0-7.2,7.1c0,2,0,4,0,6c0,1.6-0.6,2.5-2.4,2.4c-2-0.1-4-0.1-6,0s-2.7-0.8-2.6-2.7C250.4,164.9,250.3,159.4,250.3,153.8z
		 M268.7,146.5c8.1,0,8.4-0.4,7.3-8.2c-0.3-2.2-1.3-4-3.1-5.2c-2.7-1.9-6.2-1.8-8.8,0.2c-2.5,1.9-4.1,7.8-2.6,11.6
		c1.1,2.9,4,1,6,1.5C268,146.6,268.4,146.5,268.7,146.5z"/>
	<path class="st1" d="M296.8,146.6c0-7.5,0.1-15.1,0-22.6c0-2.5,0.8-3.4,3.3-3.3c4.2,0.1,8.4,0,12.6,0.1
		c10.8,0.2,19.3,7.8,20.7,18.5c0.7,5.4,0.7,10.9-0.1,16.3c-1.5,10-10.1,17.5-20.2,17.7c-4.4,0.1-8.8-0.1-13.2,0
		c-2.3,0.1-3.2-0.7-3.2-3.1C296.9,162.3,296.8,154.4,296.8,146.6z M307.9,146.9c0,4.1,0,8.2,0,12.3c0,1.1-0.1,2.5,1.4,2.7
		c7.1,1,12.6-2.2,13.3-9.4c0.3-3,0.1-6.1,0.1-9.1c0-7.8-4.1-11.7-11.9-11.6c-2.1,0-2.9,0.8-2.9,2.8
		C308,138.7,307.9,142.8,307.9,146.9z"/>
	<path class="st1" d="M327.8,214.1c0-7.6,0.1-15.3,0-22.9c0-2.5,0.9-3.4,3.3-3.3c5,0.2,9.9-0.3,14.9,0.3c10.3,1.2,18,8.9,18.7,19.3
		c0.4,5.3,0.6,10.7-0.4,16c-1.8,9.6-10.3,16.7-20.1,16.8c-4.3,0-8.6-0.1-12.9,0.1c-2.8,0.1-3.6-1-3.5-3.6
		C327.9,229.2,327.8,221.7,327.8,214.1z M339,213.9c0,4.3,0,8.6,0,12.9c0,1.1-0.1,2.3,1.4,2.8c5.9,1.8,12.9-3.1,13.2-9.4
		c0.2-3.1-0.2-6.3,0.1-9.5c0.6-7-4.4-12.2-12.2-11.7c-1.8,0.1-2.6,0.7-2.5,2.5C339,205.6,339,209.7,339,213.9z"/>
	<path class="st1" d="M240.4,146.8c0,2.8,0,5.5,0,8.3c-0.1,9.5-7.9,17.7-17.3,18c-10,0.4-18.4-6.7-19.3-16.5c-0.6-6.7-0.8-13.4,0-20
		c1.1-9.5,9.9-16.6,19.3-15.9c9.8,0.6,17.2,8.5,17.2,18.4C240.4,141.7,240.4,144.2,240.4,146.8L240.4,146.8z M229.7,148.1
		c-0.2-3.8,0.2-6.9-0.4-10.1c-0.8-3.9-3.6-6.3-7.4-6.2c-3.7,0.1-7,2.8-7.2,6.6c-0.3,5.6-0.3,11.3,0,16.9c0.2,4.3,3.6,6.9,7.8,6.7
		c3.9-0.2,6.5-2.9,6.8-7.1C229.5,152.4,229.6,149.9,229.7,148.1z"/>
	<path class="st1" d="M240.4,214.4c0,2.5,0,5,0,7.4c0,9.7-7.4,17.9-16.4,18.5c-10.8,0.6-19.1-6-20.2-16.3c-0.7-6.6-0.7-13.2,0-19.7
		c1-9.4,9.5-16.7,18.7-16.2c10.1,0.5,17.7,8.3,17.8,18.1C240.4,208.9,240.4,211.6,240.4,214.4z M214.6,214.1L214.6,214.1
		c0,2.5-0.1,5,0,7.5c0.1,4.3,2.8,7.3,6.6,7.7c4.4,0.4,7.7-2,8.2-6.6c0.6-5.6,0.6-11.3,0-16.9c-0.4-4.2-3.8-6.9-7.6-6.7
		c-4,0.2-7,3.4-7.2,7.6C214.5,209.1,214.6,211.6,214.6,214.1z"/>
	<path class="st1" d="M125.9,214.1c0-2.9,0-5.7,0-8.6c0-8.8,5.7-15.5,14.3-17.1c4.9-0.9,9.7-0.3,14.2,2.1c6.3,3.5,9.4,9.7,8.5,16.8
		c-0.2,1.3-0.6,1.9-1.9,1.9c-1.1,0-2.1,0-3.2,0c-5.4,0-5.5,0-6-5.4c-0.2-1.9-1.3-2.9-2.7-3.8c-5.9-3.3-11.9,0.1-11.9,6.8
		c0,5.1,0,10.1,0,15.2c0,4.7,1.5,6.5,6.3,7.1c5.1,0.7,8.3-1.9,8.4-7c0-2.4,0.9-3.3,3.2-3.1c1.1,0.1,2.3,0,3.4,0c4.5,0,4.5,0,4.5,4.4
		c0,8.9-6.8,16-16.1,16.6c-4.3,0.3-8.4-0.1-12.2-2.3c-5.6-3.2-8.7-7.9-8.7-14.4C125.9,220.4,125.9,217.3,125.9,214.1z"/>
	<path class="st1" d="M291.7,214.2c0-7.6,0.1-15.3,0-22.9c0-2.4,0.7-3.5,3.2-3.4c6.8,0.1,13.6,0.1,20.3,0c2.2,0,3.1,0.8,3.1,3
		c-0.1,9.9,1,7.9-7.7,8.1c-0.5,0-1,0-1.4,0c-7.1,0.2-6.4-1.5-6.5,6.9c0,2,0.9,2.7,2.8,2.7c3.2-0.1,6.3,0.1,9.5,0
		c2.2-0.1,3.3,0.7,3.3,3.1c-0.2,9.8,1,7.8-7.8,8c-1.5,0-3.1,0.1-4.6,0c-2.3-0.2-3.3,0.6-3.2,3c0.1,7.4-0.6,6.5,6.4,6.6
		c2.3,0,4.6,0,6.9,0c1.5,0,2.3,0.8,2.3,2.3c0,0.1,0,0.2,0,0.3c0.7,8.4,0.7,8.4-7.8,8.4c-5.1,0-10.1-0.1-15.2,0.1
		c-2.7,0.1-3.7-0.7-3.6-3.5C291.8,229.3,291.6,221.8,291.7,214.2z"/>
	<path class="st1" d="M260.1,240.4c-2.3,0-4.6-0.1-6.9,0c-2.3,0.2-3-0.9-2.9-3c0.3-9.3-1.5-7.9,8-8.1c2.5,0,5,0,7.5,0
		c3.1-0.1,5.2-1.9,5.2-4.6c0.1-2.5-2.1-4.8-5-4.9c-3.4-0.2-6.6-1.1-9.3-3.2c-5.1-3.8-7.5-10.4-5.9-16.6c1.7-6.4,6.9-11,13.3-11.8
		c5.1-0.6,10.3-0.2,15.5-0.3c1.6,0,2.4,0.7,2.6,2.3c1,8.3,0.6,8.7-7.6,8.7c-2.7,0-5.4-0.1-8,0c-3,0.1-5.1,2.1-5.2,4.7
		c-0.1,2.5,1.6,4.6,4.6,4.8c7,0.7,12.2,3.7,14.9,10.3c4.1,10.2-3.4,21.3-14.4,21.4C264.3,240.4,262.2,240.4,260.1,240.4z"/>
	<path class="st1" d="M183.6,208.7c0,5.9,0.1,11.9,0,17.8c0,2.1,0.7,2.9,2.8,2.9c3.3-0.1,6.7,0,10,0.1c1.8,0,2.7,0.7,2.7,2.7
		c0.2,8.3,0.3,8.3-8,8.3c-5.3,0-10.5-0.1-15.8,0c-2.1,0-2.9-0.8-2.9-2.9c0-15.6,0-31.2,0-46.8c0-2.1,0.9-2.9,2.9-2.9
		c10,0.1,8-1,8.2,7.6C183.6,199.9,183.6,204.3,183.6,208.7z"/>
</g>
</svg>
